<svg width="20" height="20" viewBox="0 0 20 20" fill="none" xmlns="http://www.w3.org/2000/svg">
<path d="M4.4597 15.0926V15.5926H4.9597H15.1412H15.6412V15.0926V4.79601V4.29601H15.1412H4.9597H4.4597V4.79601V15.0926ZM15.7113 15.6887H4.31201V4.28125H15.7113V15.6887Z" fill="white" stroke="white"/>
<path d="M15.5189 1.93118V0.5H15.7189V1.93118H15.5189Z" fill="white" stroke="white"/>
<path d="M4.25482 1.98248V0.5H4.45477V1.98248H4.25482Z" fill="white" stroke="white"/>
<path d="M15.5189 19.4225V18.0176H15.6926V19.4225H15.5189Z" fill="white" stroke="white"/>
<path d="M4.25482 19.5001V18.0176H4.45477V19.5001H4.25482Z" fill="white" stroke="white"/>
<path d="M18.022 15.7594V15.5156H19.3681V15.7594H18.022Z" fill="white" stroke="white"/>
<path d="M0.5 15.6643V15.5156H1.82107V15.6643H0.5Z" fill="white" stroke="white"/>
<path d="M18.022 4.42758V4.25391H19.4994V4.42758H18.022Z" fill="white" stroke="white"/>
<path d="M0.5 4.45135V4.25391H1.92492V4.45135H0.5Z" fill="white" stroke="white"/>
</svg>
