<svg width="18" height="18" viewBox="0 0 18 18" fill="none" xmlns="http://www.w3.org/2000/svg">
<path d="M2.08929 18C1.48929 18 0.991285 17.8068 0.595285 17.4205C0.198428 17.0333 0 16.547 0 15.9617V12.9826H1.28571V15.9617C1.28571 16.1707 1.36629 16.3534 1.52743 16.5098C1.68771 16.667 1.875 16.7456 2.08929 16.7456H15.9107C16.125 16.7456 16.3123 16.667 16.4726 16.5098C16.6337 16.3534 16.7143 16.1707 16.7143 15.9617V12.9826H18V15.9617C18 16.547 17.802 17.0333 17.406 17.4205C17.0091 17.8068 16.5107 18 15.9107 18H2.08929ZM9 13.2648L4.43571 8.8432L5.36786 7.9338L8.35714 10.8502V0H9.64286V10.8502L12.6321 7.9338L13.5643 8.8432L9 13.2648Z" fill="white"/>
</svg>
