<svg width="20" height="20" viewBox="0 0 20 20" fill="none" xmlns="http://www.w3.org/2000/svg">
<path d="M16.1171 16.1058L17.7257 14.4927L19.3335 16.1058C19.6517 16.4248 19.8684 16.8312 19.9562 17.2737C20.0441 17.7162 19.9991 18.1749 19.8269 18.5917C19.6548 19.0086 19.3632 19.3649 18.9891 19.6155C18.615 19.8662 18.1752 20 17.7253 20C17.2754 20 16.8355 19.8662 16.4615 19.6155C16.0874 19.3649 15.7958 19.0086 15.6237 18.5917C15.4515 18.1749 15.4065 17.7162 15.4943 17.2737C15.5822 16.8312 15.7989 16.4248 16.1171 16.1058ZM6.69975 0L16.9942 10.3221C17.0788 10.4068 17.1459 10.5074 17.1917 10.6182C17.2375 10.729 17.261 10.8477 17.261 10.9676C17.261 11.0875 17.2375 11.2062 17.1917 11.317C17.1459 11.4278 17.0788 11.5284 16.9942 11.6131L9.27381 19.3549C9.10318 19.5259 8.87179 19.622 8.63052 19.622C8.38926 19.622 8.15786 19.5259 7.98724 19.3549L0.266857 11.6131C0.182259 11.5284 0.115147 11.4278 0.0693578 11.317C0.0235685 11.2062 0 11.0875 0 10.9676C0 10.8477 0.0235685 10.729 0.0693578 10.6182C0.115147 10.5074 0.182259 10.4068 0.266857 10.3221L7.34395 3.22536L5.41317 1.29014L6.70157 0H6.69975ZM8.63052 4.51642L2.19672 10.9671L8.63052 17.4206L15.0643 10.969L8.63052 4.5155V4.51642Z" stroke="white"/>
</svg>
