<svg width="16" height="16" viewBox="0 0 17 16" fill="none" xmlns="http://www.w3.org/2000/svg">
<path d="M0.536563 16C0.461304 16.0004 0.3868 15.985 0.317949 15.9546C0.249099 15.9242 0.18746 15.8796 0.137085 15.8236C0.0867109 15.7677 0.0487411 15.7018 0.0256722 15.6302C0.00260325 15.5585 -0.00504248 15.4828 0.00323758 15.408L0.483231 11.0507C0.496682 10.9295 0.55127 10.8166 0.637895 10.7307L10.8137 0.560218C10.9902 0.382679 11.2 0.241785 11.4311 0.14564C11.6622 0.0494961 11.9101 0 12.1604 0C12.4107 0 12.6585 0.0494961 12.8897 0.14564C13.1208 0.241785 13.3306 0.382679 13.507 0.560218L15.4697 2.49619C15.6472 2.67264 15.7881 2.88246 15.8843 3.11357C15.9804 3.34468 16.0299 3.59252 16.0299 3.84284C16.0299 4.09315 15.9804 4.34099 15.8843 4.5721C15.7881 4.80321 15.6472 5.01303 15.4697 5.18948L5.27249 15.36C5.18665 15.4466 5.07371 15.5012 4.9525 15.5147L0.595229 16H0.536563ZM1.52855 11.3494L1.13922 14.864L4.65384 14.4747L14.691 4.43216C14.8467 4.27446 14.934 4.06177 14.934 3.84017C14.934 3.61857 14.8467 3.40588 14.691 3.24818L12.7551 1.31221C12.5973 1.15652 12.3847 1.06923 12.1631 1.06923C11.9415 1.06923 11.7288 1.15652 11.5711 1.31221L1.52855 11.3494Z" fill="white"/>
<path d="M13.6133 6.79492C13.4734 6.79433 13.3393 6.73879 13.24 6.64026L9.36269 2.76298C9.26297 2.66043 9.20807 2.52247 9.21007 2.37945C9.21208 2.23642 9.27081 2.10005 9.37336 2.00033C9.47591 1.90061 9.61387 1.84571 9.7569 1.84771C9.89992 1.84971 10.0363 1.90844 10.136 2.01099L13.992 5.86694C14.0913 5.96686 14.147 6.10203 14.147 6.24293C14.147 6.38383 14.0913 6.519 13.992 6.61893C13.9439 6.67222 13.8856 6.71528 13.8206 6.74552C13.7555 6.77576 13.685 6.79257 13.6133 6.79492Z" fill="white"/>
<path d="M9.35971 5.88827L4.51752 10.7305L5.27175 11.4847L10.1139 6.64251L9.35971 5.88827Z" fill="white"/>
</svg>
