<svg width="20" height="16" viewBox="0 0 20 16" fill="none" xmlns="http://www.w3.org/2000/svg">
<path d="M14.9335 0L13.48 1.44L16.0798 4H6.14125C4.51249 4 2.95044 4.63214 1.79873 5.75736C0.647022 6.88258 0 8.4087 0 10C0 11.5913 0.647022 13.1174 1.79873 14.2426C2.95044 15.3679 4.51249 16 6.14125 16H8.18833V14H6.14125C5.05541 14 4.01404 13.5786 3.24624 12.8284C2.47843 12.0783 2.04708 11.0609 2.04708 10C2.04708 8.93913 2.47843 7.92172 3.24624 7.17157C4.01404 6.42143 5.05541 6 6.14125 6H16.0798L13.48 8.51L14.9232 9.92L20 5L14.9335 0Z" fill="white"/>
</svg>
