<svg width="20" height="20" viewBox="0 0 20 20" fill="none" xmlns="http://www.w3.org/2000/svg">
<path d="M18.2417 15.2676C19.2712 13.6699 19.8154 11.8165 19.8154 9.90772C19.8154 4.44457 15.3709 0 9.90772 0C4.44456 0 0 4.44457 0 9.90772C0 11.8022 0.53664 13.6439 1.5519 15.2337C2.53971 16.7805 3.93266 18.0215 5.58006 18.8226L6.29472 17.3529C3.42004 15.9551 1.63427 13.1022 1.63427 9.90777C1.63427 5.3457 5.3457 1.63427 9.90772 1.63427C14.4697 1.63427 18.1812 5.3457 18.1812 9.90772C18.1812 12.6232 16.8247 15.1613 14.638 16.6938L11.7527 13.7947V20H17.9283L15.8063 17.8678C16.763 17.1583 17.5894 16.28 18.2417 15.2676Z" fill="white"/>
</svg>
