<svg width="18" height="18" viewBox="0 0 18 18" fill="none" xmlns="http://www.w3.org/2000/svg">
<path d="M16.3125 17.4375H1.6875C1.53832 17.4375 1.39524 17.3782 1.28975 17.2728C1.18426 17.1673 1.125 17.0242 1.125 16.875V1.12501C1.125 0.975825 1.18426 0.832751 1.28975 0.727262C1.39524 0.621773 1.53832 0.562509 1.6875 0.562509H12.9375C13.0115 0.562081 13.0849 0.57627 13.1534 0.604263C13.222 0.632256 13.2843 0.673501 13.3369 0.725634L16.7119 4.10063C16.764 4.15319 16.8053 4.21553 16.8332 4.28406C16.8612 4.3526 16.8754 4.42598 16.875 4.50001V16.875C16.875 17.0242 16.8157 17.1673 16.7102 17.2728C16.6048 17.3782 16.4617 17.4375 16.3125 17.4375ZM2.25 16.3125H15.75V4.73063L12.7069 1.68751H2.25V16.3125Z" fill="white"/>
<path d="M11.25 5.0625H5.625C5.47582 5.0625 5.33274 5.00324 5.22725 4.89775C5.12176 4.79226 5.0625 4.64918 5.0625 4.5V1.125C5.0625 0.975816 5.12176 0.832742 5.22725 0.727252C5.33274 0.621763 5.47582 0.5625 5.625 0.5625H11.25C11.3992 0.5625 11.5423 0.621763 11.6477 0.727252C11.7532 0.832742 11.8125 0.975816 11.8125 1.125V4.5C11.8125 4.64918 11.7532 4.79226 11.6477 4.89775C11.5423 5.00324 11.3992 5.0625 11.25 5.0625ZM6.1875 3.9375H10.6875V1.6875H6.1875V3.9375Z" fill="white"/>
<path d="M12.9375 14.0625H5.0625C4.91332 14.0625 4.77024 14.0032 4.66475 13.8977C4.55926 13.7923 4.5 13.6492 4.5 13.5V7.875C4.5 7.72582 4.55926 7.58274 4.66475 7.47725C4.77024 7.37176 4.91332 7.3125 5.0625 7.3125H12.9375C13.0867 7.3125 13.2298 7.37176 13.3352 7.47725C13.4407 7.58274 13.5 7.72582 13.5 7.875V13.5C13.5 13.6492 13.4407 13.7923 13.3352 13.8977C13.2298 14.0032 13.0867 14.0625 12.9375 14.0625ZM5.625 12.9375H12.375V8.4375H5.625V12.9375Z" fill="white"/>
</svg>
