<svg width="20" height="16" viewBox="0 0 20 16" fill="none" xmlns="http://www.w3.org/2000/svg">
<path d="M5.06653 0L6.51996 1.44L3.92016 4H13.8588C15.4875 4 17.0496 4.63214 18.2013 5.75736C19.353 6.88258 20 8.4087 20 10C20 11.5913 19.353 13.1174 18.2013 14.2426C17.0496 15.3679 15.4875 16 13.8588 16H11.8117V14H13.8588C14.9446 14 15.986 13.5786 16.7538 12.8284C17.5216 12.0783 17.9529 11.0609 17.9529 10C17.9529 8.93913 17.5216 7.92172 16.7538 7.17157C15.986 6.42143 14.9446 6 13.8588 6H3.92016L6.51996 8.51L5.07677 9.92L0 5L5.06653 0Z" fill="white"/>
</svg>
