<svg width="20" height="20" viewBox="0 0 20 20" fill="none" xmlns="http://www.w3.org/2000/svg">
<path opacity="0.5" d="M19.3711 20L11.5094 12.1384C10.8805 12.6834 10.1572 13.1027 9.33962 13.3962C8.52201 13.6897 7.71489 13.8365 6.91824 13.8365C4.98952 13.8365 3.3543 13.1656 2.01258 11.8239C0.670859 10.4822 0 8.84696 0 6.91824C0 4.98952 0.670859 3.3543 2.01258 2.01258C3.3543 0.670859 4.98952 0 6.91824 0C8.84696 0 10.4822 0.670859 11.8239 2.01258C13.1656 3.3543 13.8365 4.98952 13.8365 6.91824C13.8365 7.77778 13.6792 8.61635 13.3648 9.43396C13.0503 10.2516 12.6415 10.9434 12.1384 11.5094L20 19.3711L19.3711 20ZM6.91824 12.956C8.61635 12.956 10.0474 12.374 11.2113 11.2101C12.3744 10.047 12.956 8.61635 12.956 6.91824C12.956 5.22013 12.3744 3.7891 11.2113 2.62516C10.0474 1.46205 8.61635 0.880503 6.91824 0.880503C5.22013 0.880503 3.78952 1.46205 2.62642 2.62516C1.46247 3.7891 0.880503 5.22013 0.880503 6.91824C0.880503 8.61635 1.46247 10.047 2.62642 11.2101C3.78952 12.374 5.22013 12.956 6.91824 12.956ZM4.15094 7.35849V6.47799H9.68554V7.35849H4.15094Z" fill="white"/>
</svg>
