<svg width="24" height="17" viewBox="0 0 24 17" xmlns="http://www.w3.org/2000/svg">
<path fill-rule="evenodd" clip-rule="evenodd" d="M2.25 1.7C1.83921 1.7 1.5 2.08444 1.5 2.55V14.45C1.5 14.9156 1.83921 15.3 2.25 15.3H21.75C22.1608 15.3 22.5 14.9156 22.5 14.45V2.55C22.5 2.08444 22.1608 1.7 21.75 1.7H2.25ZM0 2.55C0 1.14556 1.01079 0 2.25 0H21.75C22.9892 0 24 1.14556 24 2.55V14.45C24 15.8544 22.9892 17 21.75 17H2.25C1.01079 17 0 15.8544 0 14.45V2.55Z" fill="currentColor"/>
<path fill-rule="evenodd" clip-rule="evenodd" d="M12 6.79961C11.1716 6.79961 10.5 7.56072 10.5 8.49961C10.5 9.43849 11.1716 10.1996 12 10.1996C12.8284 10.1996 13.5 9.43849 13.5 8.49961C13.5 7.56072 12.8284 6.79961 12 6.79961ZM9 8.49961C9 6.62184 10.3431 5.09961 12 5.09961C13.6569 5.09961 15 6.62184 15 8.49961C15 10.3774 13.6569 11.8996 12 11.8996C10.3431 11.8996 9 10.3774 9 8.49961Z" fill="currentColor"/>
<path fill-rule="evenodd" clip-rule="evenodd" d="M12 0C12.4142 0 12.75 0.380558 12.75 0.85V16.15C12.75 16.6194 12.4142 17 12 17C11.5858 17 11.25 16.6194 11.25 16.15V0.85C11.25 0.380558 11.5858 0 12 0Z" fill="currentColor"/>
<path fill-rule="evenodd" clip-rule="evenodd" d="M0 3.3998C0 2.93036 0.335786 2.5498 0.75 2.5498C3.63921 2.5498 6 5.22536 6 8.4998C6 11.7742 3.63921 14.4498 0.75 14.4498C0.335786 14.4498 0 14.0692 0 13.5998C0 13.1304 0.335786 12.7498 0.75 12.7498C2.81079 12.7498 4.5 10.8354 4.5 8.4998C4.5 6.16425 2.81079 4.2498 0.75 4.2498C0.335786 4.2498 0 3.86925 0 3.3998Z" fill="currentColor"/>
<path fill-rule="evenodd" clip-rule="evenodd" d="M23.25 4.2498C21.1892 4.2498 19.5 6.16425 19.5 8.4998C19.5 10.8354 21.1892 12.7498 23.25 12.7498C23.6642 12.7498 24 13.1304 24 13.5998C24 14.0692 23.6642 14.4498 23.25 14.4498C20.3608 14.4498 18 11.7742 18 8.4998C18 5.22536 20.3608 2.5498 23.25 2.5498C23.6642 2.5498 24 2.93036 24 3.3998C24 3.86925 23.6642 4.2498 23.25 4.2498Z" fill="currentColor"/>
</svg>
