<svg width="26" height="23" viewBox="0 0 26 23" xmlns="http://www.w3.org/2000/svg">
<path d="M21.9033 15.0514C21.45 12.7421 19.4267 11 17 11C15.0733 11 13.4033 12.101 12.5667 13.7088C10.5633 13.927 9 15.6355 9 17.7132C9 19.9386 10.79 21.7411 13 21.7411H21.6667C23.5067 21.7411 25 20.2374 25 18.3845C25 16.6122 23.63 15.1756 21.9033 15.0514ZM21.6667 20.3985H13C11.5267 20.3985 10.3333 19.1968 10.3333 17.7132C10.3333 16.2296 11.5267 15.0279 13 15.0279H13.4733C13.91 13.4805 15.32 12.3426 17 12.3426C19.0267 12.3426 20.6667 13.9941 20.6667 16.0349V16.3706H21.6667C22.77 16.3706 23.6667 17.2735 23.6667 18.3845C23.6667 19.4956 22.77 20.3985 21.6667 20.3985Z" stroke="currentColor"/>
<path d="M23.1666 21.228C23.0023 21.228 22.8405 21.228 22.6762 21.228C22.2293 21.228 21.7799 21.228 21.3331 21.228C20.6655 21.228 19.9978 21.228 19.3327 21.228C18.511 21.228 17.6892 21.228 16.8649 21.228C15.9533 21.228 15.0391 21.228 14.1275 21.228C13.1902 21.228 12.2503 21.228 11.313 21.228C10.4142 21.228 9.51289 21.228 8.61411 21.228C7.81804 21.228 7.02198 21.228 6.22592 21.228C5.59677 21.228 4.9702 21.228 4.34105 21.228C3.94559 21.228 3.55012 21.228 3.15209 21.228C3.06222 21.228 2.96977 21.228 2.87989 21.228C2.86448 21.228 2.84908 21.228 2.83367 21.228C2.81569 21.228 2.79772 21.228 2.77974 21.228C2.7592 21.228 2.64364 21.2152 2.72325 21.2254C2.80285 21.2357 2.66162 21.21 2.6385 21.2049C2.59999 21.1946 2.56147 21.1818 2.52295 21.1689C2.43307 21.1407 2.60255 21.2126 2.52038 21.1689C2.48443 21.151 2.45105 21.133 2.41766 21.1125C2.39712 21.0996 2.28413 21.02 2.34576 21.0662C2.40739 21.115 2.32265 21.0431 2.30724 21.0303C2.27899 21.0046 2.25075 20.9764 2.22507 20.9455C2.21479 20.9327 2.20452 20.9199 2.19168 20.907C2.1506 20.8659 2.22507 20.9455 2.21993 20.9455C2.20709 20.9481 2.15316 20.8454 2.14546 20.8325C2.12492 20.7992 2.10951 20.7606 2.09153 20.7273C2.06072 20.6759 2.11464 20.7735 2.10951 20.7709C2.10437 20.7709 2.0941 20.7273 2.09153 20.7221C2.07869 20.6836 2.06585 20.6451 2.05815 20.6066C2.05301 20.5886 2.05045 20.5732 2.04788 20.5552C2.03761 20.4987 2.06072 20.4782 2.04788 20.5706C2.05558 20.5167 2.04017 20.4551 2.04017 20.4011C2.04017 20.3138 2.04017 20.2239 2.04017 20.1366C2.04017 19.7155 2.04017 19.2944 2.04017 18.8732C2.04017 18.1978 2.04017 17.5199 2.04017 16.8445C2.04017 15.9997 2.04017 15.1548 2.04017 14.31C2.04017 13.3829 2.04017 12.4534 2.04017 11.5263C2.04017 10.6019 2.04017 9.67741 2.04017 8.75038C2.04017 7.91323 2.04017 7.07865 2.04017 6.2415C2.04017 5.58154 2.04017 4.91901 2.04017 4.25905C2.04017 3.85845 2.04017 3.46042 2.04017 3.05982C2.04017 2.98535 2.04017 2.91088 2.04017 2.83384C2.04017 2.82871 2.04017 2.82614 2.04017 2.821C2.04017 2.80303 2.04017 2.78505 2.04017 2.76708C2.04017 2.7491 1.875 2.76194 1.875 2.74397C1.88014 2.65152 2.04274 2.73369 2.03761 2.74397C2.07099 2.68234 2.07613 2.57962 2.09924 2.51028C2.12748 2.42554 1.82769 2.82383 1.88675 2.71341C1.90216 2.6826 2.13776 2.43325 2.15573 2.40243C2.166 2.38702 2.20709 2.30228 2.21993 2.30485C2.22763 2.30485 2.14803 2.38189 2.19168 2.34337C2.21223 2.32539 2.2302 2.29971 2.24818 2.28174C2.27129 2.25863 2.2944 2.23295 2.32008 2.2124C2.33292 2.20213 2.64621 1.92401 2.65905 1.91117C2.70527 1.86238 2.27643 2.23038 2.33549 2.19699C2.40225 2.15848 2.47159 2.11739 2.53836 2.07887C2.58971 2.04805 2.24561 1.61965 2.24818 1.61451C2.24818 1.60937 2.56147 2.07373 2.5589 2.07373C2.59228 2.06346 2.62567 2.05319 2.65905 2.04549C2.68473 2.04035 2.80799 2.01981 2.72838 2.03008C2.64878 2.04035 2.77974 2.02751 2.80285 2.02751C2.8234 2.02751 2.84137 2.02751 2.86192 2.02751C2.92355 2.02751 2.98518 2.02751 3.04681 2.02751C3.32158 2.02751 3.59635 2.02751 3.87112 2.02751C4.74679 2.02751 5.62245 2.02751 6.49812 2.02751C7.27364 2.02751 8.05173 2.02751 8.82725 2.02751C8.97875 2.02751 9.13026 2.02494 9.2792 2.02751C9.28177 2.02751 9.28177 2.02751 9.28434 2.02751C9.31002 2.02751 9.33827 2.03008 9.36395 2.03008C9.37935 2.03008 9.43842 2.04549 9.37422 2.03008C9.30488 2.01467 9.37165 2.03008 9.38449 2.03521C9.4153 2.04292 9.44869 2.05062 9.4795 2.06089C9.48464 2.06346 9.536 2.0763 9.536 2.07887C9.536 2.08144 9.44869 2.03521 9.50261 2.06603C9.54113 2.08914 9.58222 2.10968 9.62331 2.1328C9.70548 2.17902 9.57452 2.08401 9.64385 2.14564C9.68237 2.18159 9.72089 2.21754 9.75684 2.25863C9.79022 2.29714 9.82361 2.33566 9.85699 2.37162C10.3706 2.96481 10.8867 3.558 11.4003 4.1512C11.6546 4.44394 11.9113 4.73926 12.1656 5.032C12.3428 5.23744 12.4737 5.44801 12.7793 5.46598C13.1131 5.48396 13.4547 5.46598 13.7911 5.46598C14.5461 5.46598 15.301 5.46598 16.056 5.46598C16.983 5.46598 17.9075 5.46598 18.8345 5.46598C19.6845 5.46598 20.5371 5.46598 21.387 5.46598C21.916 5.46598 22.445 5.46598 22.9766 5.46598C23.0305 5.46598 23.0845 5.46598 23.1358 5.46598C23.1487 5.46598 23.1615 5.46598 23.1718 5.46598C23.1743 5.46598 23.1769 5.46598 23.1769 5.46598C23.1897 5.46598 23.2026 5.46598 23.2129 5.46598C23.236 5.46598 23.3644 5.47882 23.2873 5.46855C23.2026 5.45828 23.3361 5.47882 23.3567 5.48396C23.3952 5.49423 23.4337 5.5045 23.4722 5.51734C23.4774 5.51991 23.5184 5.53018 23.521 5.53532C23.521 5.54046 23.426 5.48653 23.4774 5.51734C23.5159 5.54045 23.557 5.55843 23.5955 5.58154C23.6083 5.58925 23.6956 5.63547 23.6931 5.64574C23.6931 5.65088 23.6135 5.57641 23.6545 5.61749C23.6648 5.63033 23.6802 5.64061 23.6931 5.65088C23.7213 5.67656 23.7496 5.7048 23.7778 5.73305C23.7881 5.74589 23.8009 5.75873 23.8112 5.77157C23.8677 5.83063 23.7958 5.74589 23.7932 5.74589C23.8189 5.74332 23.9036 5.92821 23.9139 5.94876C23.9576 6.03093 23.8882 5.86145 23.9139 5.95133C23.9267 5.99498 23.9422 6.03864 23.955 6.08229C23.9601 6.10283 23.9832 6.23637 23.9704 6.15163C23.9601 6.07202 23.9704 6.18758 23.973 6.20812C23.973 6.2261 23.973 6.24664 23.973 6.26461C23.9755 6.51627 23.973 6.76793 23.973 7.01959C23.973 7.63076 23.973 8.24193 23.973 8.8531C23.973 9.69025 23.973 10.53 23.973 11.3671C23.973 12.2993 23.973 13.2314 23.973 14.1636C23.973 15.0572 23.973 15.9509 23.973 16.8445C23.973 17.5661 23.973 18.2903 23.973 19.0119C23.973 19.4305 23.973 19.849 23.973 20.265C23.973 20.3241 23.973 20.3832 23.973 20.4448C23.973 20.4807 23.9576 20.5347 23.9653 20.5706C23.9653 20.5681 23.9832 20.4653 23.9704 20.5218C23.9653 20.5449 23.9627 20.568 23.9576 20.5912C23.9499 20.6245 23.9396 20.6579 23.9293 20.6913C23.9242 20.7067 23.919 20.7247 23.9139 20.7401C23.8831 20.8351 23.9242 20.7093 23.9267 20.7119C23.9422 20.7298 23.8317 20.8813 23.8189 20.9045C23.7573 21.002 23.8651 20.8582 23.8086 20.9199C23.7855 20.9455 23.765 20.9686 23.7393 20.9943C23.711 21.0226 23.6777 21.0457 23.652 21.0739C23.6135 21.1176 23.6879 21.038 23.6905 21.0457C23.6905 21.0483 23.652 21.0714 23.6494 21.0739C23.616 21.0945 23.5826 21.1176 23.5493 21.1356C23.5313 21.1458 23.4132 21.2023 23.4876 21.1689C23.557 21.1356 23.4568 21.1792 23.4363 21.1844C23.3977 21.1972 23.3592 21.2075 23.3207 21.2152C23.3027 21.2177 23.2873 21.2203 23.2694 21.2254C23.2129 21.2383 23.3156 21.2203 23.3181 21.2203C23.2719 21.2126 23.2077 21.228 23.1666 21.228C22.897 21.2306 22.6402 21.4617 22.653 21.7416C22.6659 22.0164 22.879 22.2603 23.1666 22.2552C24.1707 22.2423 24.9822 21.4283 24.9924 20.4242C24.995 20.2804 24.9924 20.1392 24.9924 19.9954C24.9924 19.1814 24.9924 18.3648 24.9924 17.5507C24.9924 16.3258 24.9924 15.0983 24.9924 13.8734C24.9924 12.6023 24.9924 11.3337 24.9924 10.0626C24.9924 9.10219 24.9924 8.14178 24.9924 7.18137C24.9924 6.54452 25.0746 5.82806 24.6971 5.27082C24.3684 4.78291 23.86 4.49017 23.2745 4.44394C23.2052 4.43881 23.1358 4.43881 23.0665 4.43881C22.7917 4.43881 22.5195 4.43881 22.2447 4.43881C21.1508 4.43881 20.0543 4.43881 18.9603 4.43881C17.6995 4.43881 16.4386 4.43881 15.1752 4.43881C14.4074 4.43881 13.6396 4.43881 12.8743 4.43881C12.8384 4.43881 12.7999 4.43881 12.7639 4.43881C12.8846 4.49017 13.0053 4.53896 13.126 4.59032C12.5328 3.90724 11.9396 3.2216 11.3464 2.53853C11.0691 2.22011 10.7943 1.90168 10.517 1.58069C10.1703 1.18009 9.69778 1.00033 9.17649 1.00033C8.25973 1.00033 7.34297 1.00033 6.42622 1.00033C5.36052 1.00033 4.29483 1.00033 3.22913 1.00033C2.87476 1.00033 2.52295 0.987494 2.18398 1.12103C1.47009 1.40864 1.01043 2.07887 1.00786 2.85182C1.00529 3.26526 1.00786 3.68127 1.00786 4.0947C1.00786 4.98578 1.00786 5.87429 1.00786 6.76536C1.00786 7.93121 1.00786 9.09449 1.00786 10.2603C1.00786 11.4981 1.00786 12.7384 1.00786 13.9761C1.00786 15.0881 1.00786 16.2 1.00786 17.3093C1.00786 18.0926 1.00786 18.8758 1.00786 19.6564C1.00786 20.1135 0.953935 20.6451 1.12856 21.0765C1.41873 21.7878 2.07869 22.2526 2.85421 22.2552C2.97234 22.2552 3.09046 22.2552 3.20859 22.2552C3.81205 22.2552 4.41552 22.2552 5.01899 22.2552C5.9871 22.2552 6.95522 22.2552 7.92076 22.2552C9.09688 22.2552 10.273 22.2552 11.4491 22.2552C12.692 22.2552 13.9349 22.2552 15.1778 22.2552C16.3333 22.2552 17.4863 22.2552 18.6394 22.2552C19.5535 22.2552 20.4703 22.2552 21.3845 22.2552C21.9083 22.2552 22.4348 22.2552 22.9586 22.2552C23.028 22.2552 23.0973 22.2552 23.1641 22.2552C23.4337 22.2552 23.6905 22.0189 23.6777 21.7416C23.67 21.4643 23.4568 21.228 23.1666 21.228Z" stroke="currentColor"/>
<path d="M23.1666 21.228C23.0023 21.228 22.8405 21.228 22.6762 21.228C22.2293 21.228 21.7799 21.228 21.3331 21.228C20.6655 21.228 19.9978 21.228 19.3327 21.228C18.511 21.228 17.6892 21.228 16.8649 21.228C15.9533 21.228 15.0391 21.228 14.1275 21.228C13.1902 21.228 12.2503 21.228 11.313 21.228C10.4142 21.228 9.51289 21.228 8.61411 21.228C7.81804 21.228 7.02198 21.228 6.22592 21.228C5.59677 21.228 4.9702 21.228 4.34105 21.228C3.94559 21.228 3.55012 21.228 3.15209 21.228C3.06222 21.228 2.96977 21.228 2.87989 21.228C2.86448 21.228 2.84908 21.228 2.83367 21.228C2.81569 21.228 2.79772 21.228 2.77974 21.228C2.7592 21.228 2.64364 21.2152 2.72325 21.2254C2.80285 21.2357 2.66162 21.21 2.6385 21.2049C2.59999 21.1946 2.56147 21.1818 2.52295 21.1689C2.43307 21.1407 2.60255 21.2126 2.52038 21.1689C2.48443 21.151 2.45105 21.133 2.41766 21.1125C2.39712 21.0996 2.28413 21.02 2.34576 21.0662C2.40739 21.115 2.32265 21.0431 2.30724 21.0303C2.27899 21.0046 2.25075 20.9764 2.22507 20.9455C2.21479 20.9327 2.20452 20.9199 2.19168 20.907C2.1506 20.8659 2.22507 20.9455 2.21993 20.9455C2.20709 20.9481 2.15316 20.8454 2.14546 20.8325C2.12492 20.7992 2.10951 20.7606 2.09153 20.7273C2.06072 20.6759 2.11464 20.7735 2.10951 20.7709C2.10437 20.7709 2.0941 20.7273 2.09153 20.7221C2.07869 20.6836 2.06585 20.6451 2.05815 20.6066C2.05301 20.5886 2.05045 20.5732 2.04788 20.5552C2.03761 20.4987 2.06072 20.4782 2.04788 20.5706C2.05558 20.5167 2.04017 20.4551 2.04017 20.4011C2.04017 20.3138 2.04017 20.2239 2.04017 20.1366C2.04017 19.7155 2.04017 19.2944 2.04017 18.8732C2.04017 18.1978 2.04017 17.5199 2.04017 16.8445C2.04017 15.9997 2.04017 15.1548 2.04017 14.31C2.04017 13.3829 2.04017 12.4534 2.04017 11.5263C2.04017 10.6019 2.04017 9.67741 2.04017 8.75038C2.04017 7.91323 2.04017 7.07865 2.04017 6.2415C2.04017 5.58154 2.04017 4.91901 2.04017 4.25905C2.04017 3.85845 2.04017 3.46042 2.04017 3.05982C2.04017 2.98535 2.04017 2.91088 2.04017 2.83384C2.04017 2.82871 2.04017 2.82614 2.04017 2.821C2.04017 2.80303 2.04017 2.78505 2.04017 2.76708C2.04017 2.7491 1.875 2.76194 1.875 2.74397C1.88014 2.65152 2.04274 2.73369 2.03761 2.74397C2.07099 2.68234 2.07613 2.57962 2.09924 2.51028C2.12748 2.42554 1.82769 2.82383 1.88675 2.71341C1.90216 2.6826 2.13776 2.43325 2.15573 2.40243C2.166 2.38702 2.20709 2.30228 2.21993 2.30485C2.22763 2.30485 2.14803 2.38189 2.19168 2.34337C2.21223 2.32539 2.2302 2.29971 2.24818 2.28174C2.27129 2.25863 2.2944 2.23295 2.32008 2.2124C2.33292 2.20213 2.64621 1.92401 2.65905 1.91117C2.70527 1.86238 2.27643 2.23038 2.33549 2.19699C2.40225 2.15848 2.47159 2.11739 2.53836 2.07887C2.58971 2.04805 2.24561 1.61965 2.24818 1.61451C2.24818 1.60937 2.56147 2.07373 2.5589 2.07373C2.59228 2.06346 2.62567 2.05319 2.65905 2.04549C2.68473 2.04035 2.80799 2.01981 2.72838 2.03008C2.64878 2.04035 2.77974 2.02751 2.80285 2.02751C2.8234 2.02751 2.84137 2.02751 2.86192 2.02751C2.92355 2.02751 2.98518 2.02751 3.04681 2.02751C3.32158 2.02751 3.59635 2.02751 3.87112 2.02751C4.74679 2.02751 5.62245 2.02751 6.49812 2.02751C7.27364 2.02751 8.05173 2.02751 8.82725 2.02751C8.97875 2.02751 9.13026 2.02494 9.2792 2.02751C9.28177 2.02751 9.28177 2.02751 9.28434 2.02751C9.31002 2.02751 9.33827 2.03008 9.36395 2.03008C9.37935 2.03008 9.43842 2.04549 9.37422 2.03008C9.30488 2.01467 9.37165 2.03008 9.38449 2.03521C9.4153 2.04292 9.44869 2.05062 9.4795 2.06089C9.48464 2.06346 9.536 2.0763 9.536 2.07887C9.536 2.08144 9.44869 2.03521 9.50261 2.06603C9.54113 2.08914 9.58222 2.10968 9.62331 2.1328C9.70548 2.17902 9.57452 2.08401 9.64385 2.14564C9.68237 2.18159 9.72089 2.21754 9.75684 2.25863C9.79022 2.29714 9.82361 2.33566 9.85699 2.37162C10.3706 2.96481 10.8867 3.558 11.4003 4.1512C11.6546 4.44394 11.9113 4.73926 12.1656 5.032C12.3428 5.23744 12.4737 5.44801 12.7793 5.46598C13.1131 5.48396 13.4547 5.46598 13.7911 5.46598C14.5461 5.46598 15.301 5.46598 16.056 5.46598C16.983 5.46598 17.9075 5.46598 18.8345 5.46598C19.6845 5.46598 20.5371 5.46598 21.387 5.46598C21.916 5.46598 22.445 5.46598 22.9766 5.46598C23.0305 5.46598 23.0845 5.46598 23.1358 5.46598C23.1487 5.46598 23.1615 5.46598 23.1718 5.46598C23.1743 5.46598 23.1769 5.46598 23.1769 5.46598C23.1897 5.46598 23.2026 5.46598 23.2129 5.46598C23.236 5.46598 23.3644 5.47882 23.2873 5.46855C23.2026 5.45828 23.3361 5.47882 23.3567 5.48396C23.3952 5.49423 23.4337 5.5045 23.4722 5.51734C23.4774 5.51991 23.5184 5.53018 23.521 5.53532C23.521 5.54046 23.426 5.48653 23.4774 5.51734C23.5159 5.54045 23.557 5.55843 23.5955 5.58154C23.6083 5.58925 23.6956 5.63547 23.6931 5.64574C23.6931 5.65088 23.6135 5.57641 23.6545 5.61749C23.6648 5.63033 23.6802 5.64061 23.6931 5.65088C23.7213 5.67656 23.7496 5.7048 23.7778 5.73305C23.7881 5.74589 23.8009 5.75873 23.8112 5.77157C23.8677 5.83063 23.7958 5.74589 23.7932 5.74589C23.8189 5.74332 23.9036 5.92821 23.9139 5.94876C23.9576 6.03093 23.8882 5.86145 23.9139 5.95133C23.9267 5.99498 23.9422 6.03864 23.955 6.08229C23.9601 6.10283 23.9832 6.23637 23.9704 6.15163C23.9601 6.07202 23.9704 6.18758 23.973 6.20812C23.973 6.2261 23.973 6.24664 23.973 6.26461C23.9755 6.51627 23.973 6.76793 23.973 7.01959C23.973 7.63076 23.973 8.24193 23.973 8.8531C23.973 9.69025 23.973 10.53 23.973 11.3671C23.973 12.2993 23.973 13.2314 23.973 14.1636C23.973 15.0572 23.973 15.9509 23.973 16.8445C23.973 17.5661 23.973 18.2903 23.973 19.0119C23.973 19.4305 23.973 19.849 23.973 20.265C23.973 20.3241 23.973 20.3832 23.973 20.4448C23.973 20.4807 23.9576 20.5347 23.9653 20.5706C23.9653 20.5681 23.9832 20.4653 23.9704 20.5218C23.9653 20.5449 23.9627 20.568 23.9576 20.5912C23.9499 20.6245 23.9396 20.6579 23.9293 20.6913C23.9242 20.7067 23.919 20.7247 23.9139 20.7401C23.8831 20.8351 23.9242 20.7093 23.9267 20.7119C23.9422 20.7298 23.8317 20.8813 23.8189 20.9045C23.7573 21.002 23.8651 20.8582 23.8086 20.9199C23.7855 20.9455 23.765 20.9686 23.7393 20.9943C23.711 21.0226 23.6777 21.0457 23.652 21.0739C23.6135 21.1176 23.6879 21.038 23.6905 21.0457C23.6905 21.0483 23.652 21.0714 23.6494 21.0739C23.616 21.0945 23.5826 21.1176 23.5493 21.1356C23.5313 21.1458 23.4132 21.2023 23.4876 21.1689C23.557 21.1356 23.4568 21.1792 23.4363 21.1844C23.3977 21.1972 23.3592 21.2075 23.3207 21.2152C23.3027 21.2177 23.2873 21.2203 23.2694 21.2254C23.2129 21.2383 23.3156 21.2203 23.3181 21.2203C23.2719 21.2126 23.2077 21.228 23.1666 21.228ZM23.1666 21.228C22.897 21.2306 22.6402 21.4617 22.653 21.7416C22.6659 22.0164 22.879 22.2603 23.1666 22.2552C24.1707 22.2423 24.9822 21.4283 24.9924 20.4242C24.995 20.2804 24.9924 20.1392 24.9924 19.9954C24.9924 19.1814 24.9924 18.3648 24.9924 17.5507C24.9924 16.3258 24.9924 15.0983 24.9924 13.8734C24.9924 12.6023 24.9924 11.3337 24.9924 10.0626C24.9924 9.10219 24.9924 8.14178 24.9924 7.18137C24.9924 6.54452 25.0746 5.82806 24.6971 5.27082C24.3684 4.78291 23.86 4.49017 23.2745 4.44394C23.2052 4.43881 23.1358 4.43881 23.0665 4.43881C22.7917 4.43881 22.5195 4.43881 22.2447 4.43881C21.1508 4.43881 20.0543 4.43881 18.9603 4.43881C17.6995 4.43881 16.4386 4.43881 15.1752 4.43881C14.4074 4.43881 13.6396 4.43881 12.8743 4.43881C12.8384 4.43881 12.7999 4.43881 12.7639 4.43881C12.8846 4.49017 13.0053 4.53896 13.126 4.59032C12.5328 3.90724 11.9396 3.2216 11.3464 2.53853C11.0691 2.22011 10.7943 1.90168 10.517 1.58069C10.1703 1.18009 9.69778 1.00033 9.17649 1.00033C8.25973 1.00033 7.34297 1.00033 6.42622 1.00033C5.36052 1.00033 4.29483 1.00033 3.22913 1.00033C2.87476 1.00033 2.52295 0.987494 2.18398 1.12103C1.47009 1.40864 1.01043 2.07887 1.00786 2.85182C1.00529 3.26526 1.00786 3.68127 1.00786 4.0947C1.00786 4.98578 1.00786 5.87429 1.00786 6.76536C1.00786 7.93121 1.00786 9.09449 1.00786 10.2603C1.00786 11.4981 1.00786 12.7384 1.00786 13.9761C1.00786 15.0881 1.00786 16.2 1.00786 17.3093C1.00786 18.0926 1.00786 18.8758 1.00786 19.6564C1.00786 20.1135 0.953935 20.6451 1.12856 21.0765C1.41873 21.7878 2.07869 22.2526 2.85421 22.2552C2.97234 22.2552 3.09046 22.2552 3.20859 22.2552C3.81205 22.2552 4.41552 22.2552 5.01899 22.2552C5.9871 22.2552 6.95522 22.2552 7.92076 22.2552C9.09688 22.2552 10.273 22.2552 11.4491 22.2552C12.692 22.2552 13.9349 22.2552 15.1778 22.2552C16.3333 22.2552 17.4863 22.2552 18.6394 22.2552C19.5535 22.2552 20.4703 22.2552 21.3845 22.2552C21.9083 22.2552 22.4348 22.2552 22.9586 22.2552C23.028 22.2552 23.0973 22.2552 23.1641 22.2552C23.4337 22.2552 23.6905 22.0189 23.6777 21.7416C23.67 21.4643 23.4568 21.228 23.1666 21.228Z" stroke="currentColor"/>
<path d="M23.1672 21.2278C23.0208 21.2278 22.877 21.2278 22.7307 21.2278C22.3275 21.2278 21.9243 21.2278 21.5212 21.2278C20.9177 21.2278 20.3168 21.2278 19.7133 21.2278C18.9609 21.2278 18.2059 21.2278 17.4535 21.2278C16.6113 21.2278 15.769 21.2278 14.9241 21.2278C14.0407 21.2278 13.1599 21.2278 12.2766 21.2278C11.406 21.2278 10.5329 21.2278 9.6624 21.2278C8.86377 21.2278 8.06514 21.2278 7.26651 21.2278C6.58601 21.2278 5.90807 21.2278 5.22756 21.2278C4.72938 21.2278 4.22864 21.2278 3.73045 21.2278C3.46082 21.2278 3.19119 21.2278 2.92412 21.2278C2.89844 21.2278 2.87276 21.2278 2.84965 21.2278C2.84451 21.2278 2.83938 21.2278 2.83424 21.2278H2.83168C2.8214 21.2278 2.806 21.2278 2.79572 21.2278C2.77261 21.2278 2.64422 21.2149 2.72125 21.2252C2.80086 21.2355 2.68787 21.2175 2.66989 21.2124C2.63138 21.2021 2.59286 21.1918 2.55434 21.179C2.53893 21.1738 2.52352 21.1661 2.50555 21.161C2.44905 21.143 2.55177 21.1764 2.5492 21.179C2.5415 21.1841 2.45419 21.1302 2.44392 21.1251C2.41567 21.1071 2.38742 21.0891 2.35917 21.0711C2.35404 21.0686 2.31809 21.0454 2.31809 21.0429C2.31809 21.0377 2.39769 21.1122 2.35661 21.0711C2.30268 21.0172 2.24618 20.9581 2.18969 20.9042C2.1486 20.8631 2.22307 20.9402 2.21794 20.9427C2.21537 20.9427 2.19226 20.9042 2.18969 20.9016C2.17171 20.8734 2.15374 20.8451 2.13576 20.8169C2.12806 20.8015 2.07413 20.7193 2.08184 20.7116C2.0844 20.709 2.11779 20.8118 2.09981 20.7553C2.09211 20.7347 2.0844 20.7116 2.0767 20.6911C2.06643 20.6577 2.05616 20.6243 2.04845 20.5909C2.04332 20.5704 2.02534 20.4574 2.03561 20.5396C2.04588 20.6243 2.03305 20.4831 2.03305 20.4651C2.03305 20.4523 2.03305 20.4394 2.03305 20.4291C2.03048 20.216 2.03305 20.0054 2.03305 19.7923C2.03305 19.2479 2.03305 18.7035 2.03305 18.1591C2.03305 17.399 2.03305 16.6363 2.03305 15.8762C2.03305 15.0082 2.03305 14.1403 2.03305 13.2697C2.03305 12.3992 2.03305 11.5312 2.03305 10.6607C2.03305 9.91085 2.03305 9.15844 2.03305 8.4086C2.03305 7.88218 2.03305 7.35318 2.03305 6.82675C2.03305 6.68551 2.03305 6.54171 2.03305 6.40047C2.03305 6.32343 2.05616 6.18733 2.04075 6.12057C2.04075 6.12313 2.02277 6.22585 2.03561 6.16936C2.04075 6.15138 2.04075 6.13597 2.04588 6.118C2.05359 6.08462 2.06129 6.05123 2.07156 6.01785C2.07927 5.99474 2.12549 5.88175 2.09211 5.95108C2.05872 6.02042 2.11522 5.91 2.12549 5.88945C2.1409 5.85864 2.15887 5.83039 2.17685 5.80214C2.18712 5.7893 2.19739 5.77389 2.2051 5.76106C2.23334 5.7097 2.17685 5.80471 2.17685 5.79701C2.16658 5.77389 2.31809 5.65063 2.3412 5.63009C2.40796 5.56589 2.26416 5.67888 2.34377 5.62752C2.37201 5.60955 2.40026 5.589 2.42851 5.5736C2.45676 5.55562 2.48757 5.54278 2.51839 5.5248C2.6057 5.47601 2.48757 5.54021 2.49014 5.53508C2.49014 5.52994 2.54663 5.51453 2.55434 5.51196C2.6134 5.49142 2.70071 5.49142 2.7572 5.46317C2.75464 5.46317 3.44375 4.99951 3.50024 4.99951C3.51822 4.99951 2.74437 5.46831 2.76234 5.46574C2.78545 5.46317 2.81113 5.46317 2.83424 5.46317C2.87533 5.46317 2.91385 5.46317 2.95494 5.46317C3.23998 5.46317 3.52759 5.46317 3.81263 5.46317C4.32365 5.46317 4.83724 5.46317 5.34826 5.46317C6.03647 5.46317 6.72467 5.46317 7.41288 5.46317C8.21665 5.46317 9.02298 5.46317 9.82675 5.46317C10.6973 5.46317 11.5678 5.46317 12.4358 5.46317C13.3217 5.46317 14.2077 5.46317 15.0936 5.46317C15.9333 5.46317 16.7705 5.46317 17.6102 5.46317C18.3549 5.46317 19.1022 5.46317 19.8469 5.46317C20.4375 5.46317 21.0281 5.46317 21.6213 5.46317C22.0091 5.46317 22.3943 5.46317 22.782 5.46317C22.8822 5.46317 22.9823 5.46317 23.0825 5.46317C23.1056 5.46317 23.1287 5.46317 23.1544 5.46317C23.1595 5.46317 23.1646 5.46317 23.1698 5.46317C23.1698 5.46317 23.1698 5.46317 23.1723 5.46317C23.2032 5.46317 23.2314 5.46317 23.2622 5.46574C23.3906 5.47345 23.18 5.4452 23.3007 5.47088C23.3701 5.48372 23.4343 5.50683 23.4985 5.52737C23.555 5.54535 23.4522 5.5094 23.4548 5.5094C23.4574 5.50683 23.4959 5.52994 23.501 5.53251C23.5396 5.55305 23.5806 5.57616 23.6192 5.59928C23.6346 5.60955 23.7244 5.67374 23.6628 5.62752C23.6012 5.57873 23.6859 5.65063 23.7013 5.66347C23.727 5.68659 23.7501 5.7097 23.7732 5.73538C23.7835 5.74822 23.7964 5.76106 23.8066 5.77389C23.8708 5.84066 23.7681 5.7097 23.7989 5.76362C23.8323 5.82269 23.8708 5.87661 23.9042 5.93567C23.9068 5.93824 23.9273 5.97933 23.9273 5.9819C23.9247 5.98447 23.8914 5.88175 23.9093 5.93824C23.9222 5.97676 23.935 6.01271 23.9479 6.05123C23.9581 6.08975 23.9658 6.13084 23.9735 6.16936C23.9864 6.22585 23.9684 6.12313 23.9684 6.12057C23.9658 6.13597 23.971 6.15909 23.9735 6.17449C23.9761 6.20531 23.9761 6.23612 23.9761 6.26437C23.9761 6.326 23.9761 6.38763 23.9761 6.44926C23.9761 6.84729 23.9761 7.24789 23.9761 7.64592C23.9761 8.31616 23.9761 8.98382 23.9761 9.65406C23.9761 10.4835 23.9761 11.3155 23.9761 12.145C23.9761 13.0309 23.9761 13.9143 23.9761 14.8002C23.9761 15.6194 23.9761 16.4386 23.9761 17.2603C23.9761 17.9074 23.9761 18.5571 23.9761 19.2042C23.9761 19.5714 23.9761 19.9387 23.9761 20.3033C23.9761 20.3881 23.9735 20.4702 23.971 20.555C23.9684 20.6269 23.9915 20.4548 23.9761 20.5242C23.971 20.5421 23.971 20.5575 23.9658 20.5755C23.9581 20.6089 23.9504 20.6423 23.9402 20.6757C23.9376 20.6859 23.917 20.7707 23.9068 20.7732C23.9016 20.7732 23.9556 20.6782 23.9247 20.7296C23.917 20.745 23.9093 20.7604 23.9016 20.7758C23.8837 20.8118 23.8631 20.8451 23.8426 20.8785C23.8323 20.8939 23.7681 20.9838 23.8143 20.9222C23.8631 20.8606 23.7912 20.9453 23.7784 20.9607C23.7553 20.9864 23.7322 21.0095 23.7065 21.0326C23.6936 21.0454 23.6089 21.1173 23.668 21.0686C23.7322 21.0172 23.6269 21.0942 23.6089 21.1045C23.5806 21.1225 23.5498 21.1379 23.5216 21.1559C23.5062 21.1636 23.4908 21.1687 23.4754 21.179C23.424 21.2098 23.5216 21.1559 23.519 21.161C23.5139 21.1841 23.3264 21.2201 23.3033 21.2252C23.2879 21.2278 23.2648 21.2278 23.2519 21.2355C23.2545 21.2355 23.3572 21.2278 23.3007 21.2278C23.2519 21.2252 23.2109 21.2278 23.1672 21.2278C22.8976 21.2303 22.6408 21.4615 22.6536 21.7414C22.6665 22.0161 22.8796 22.2601 23.1672 22.2549C23.9607 22.2447 24.6412 21.7414 24.9006 20.9967C24.975 20.7861 24.9904 20.5601 24.9904 20.3393C24.9904 19.99 24.9904 19.6433 24.9904 19.2941C24.9904 18.6521 24.9904 18.0101 24.9904 17.3682C24.9904 16.5413 24.9904 15.7144 24.9904 14.8875C24.9904 13.9939 24.9904 13.1002 24.9904 12.2092C24.9904 11.3694 24.9904 10.5272 24.9904 9.68744C24.9904 9.00693 24.9904 8.32643 24.9904 7.64592C24.9904 7.24533 24.9904 6.84473 24.9904 6.44156C24.9904 6.3825 24.9904 6.32343 24.9904 6.2618C24.9827 5.49656 24.5154 4.8443 23.8118 4.55926C23.4985 4.43086 23.1723 4.43857 22.8436 4.43857C22.4687 4.43857 22.0964 4.43857 21.7215 4.43857C21.1334 4.43857 20.5453 4.43857 19.9573 4.43857C19.2126 4.43857 18.4653 4.43857 17.7206 4.43857C16.8757 4.43857 16.0335 4.43857 15.1886 4.43857C14.295 4.43857 13.4013 4.43857 12.5077 4.43857C11.6243 4.43857 10.7409 4.43857 9.85756 4.43857C9.04096 4.43857 8.22435 4.43857 7.40775 4.43857C6.71697 4.43857 6.02363 4.43857 5.33285 4.43857C4.81669 4.43857 4.29797 4.43857 3.78181 4.43857C3.49934 4.43857 3.21687 4.43857 2.93439 4.43857C2.87533 4.43857 2.8137 4.43857 2.75464 4.44113C1.97398 4.48222 1.29091 5.00608 1.07263 5.76106C0.980189 6.08205 1.0033 6.42872 1.0033 6.75742C1.0033 7.27357 1.0033 7.78973 1.0033 8.30332C1.0033 9.05573 1.0033 9.8107 1.0033 10.5631C1.0033 11.4388 1.0033 12.3144 1.0033 13.1901C1.0033 14.0683 1.0033 14.9466 1.0033 15.8248C1.0033 16.5978 1.0033 17.3733 1.0033 18.1462C1.0033 18.6958 1.0033 19.2453 1.0033 19.7949C1.0033 20.0054 1.00073 20.216 1.0033 20.4266C1.011 21.2098 1.50148 21.8775 2.22821 22.1497C2.43878 22.2293 2.66476 22.2524 2.88817 22.2524C3.13983 22.2524 3.38892 22.2524 3.64058 22.2524C4.13362 22.2524 4.6241 22.2524 5.11714 22.2524C5.78994 22.2524 6.46275 22.2524 7.13811 22.2524C7.94445 22.2524 8.74821 22.2524 9.55455 22.2524C10.4328 22.2524 11.311 22.2524 12.1893 22.2524C13.0855 22.2524 13.9791 22.2524 14.8753 22.2524C15.7279 22.2524 16.5804 22.2524 17.4304 22.2524C18.1905 22.2524 18.9532 22.2524 19.7133 22.2524C20.3219 22.2524 20.9331 22.2524 21.5417 22.2524C21.9449 22.2524 22.3455 22.2524 22.7486 22.2524C22.8873 22.2524 23.026 22.2524 23.1646 22.2524C23.4343 22.2524 23.6911 22.0161 23.6782 21.7388C23.6705 21.464 23.4574 21.2278 23.1672 21.2278Z" stroke="currentColor"/>
<path d="M23.1672 21.2278C23.0208 21.2278 22.877 21.2278 22.7307 21.2278C22.3275 21.2278 21.9243 21.2278 21.5212 21.2278C20.9177 21.2278 20.3168 21.2278 19.7133 21.2278C18.9609 21.2278 18.2059 21.2278 17.4535 21.2278C16.6113 21.2278 15.769 21.2278 14.9241 21.2278C14.0407 21.2278 13.1599 21.2278 12.2766 21.2278C11.406 21.2278 10.5329 21.2278 9.6624 21.2278C8.86377 21.2278 8.06514 21.2278 7.26651 21.2278C6.58601 21.2278 5.90807 21.2278 5.22756 21.2278C4.72938 21.2278 4.22864 21.2278 3.73045 21.2278C3.46082 21.2278 3.19119 21.2278 2.92412 21.2278C2.89844 21.2278 2.87276 21.2278 2.84965 21.2278C2.84451 21.2278 2.83938 21.2278 2.83424 21.2278H2.83168C2.8214 21.2278 2.806 21.2278 2.79572 21.2278C2.77261 21.2278 2.64422 21.2149 2.72125 21.2252C2.80086 21.2355 2.68787 21.2175 2.66989 21.2124C2.63138 21.2021 2.59286 21.1918 2.55434 21.179C2.53893 21.1738 2.52352 21.1661 2.50555 21.161C2.44905 21.143 2.55177 21.1764 2.5492 21.179C2.5415 21.1841 2.45419 21.1302 2.44392 21.1251C2.41567 21.1071 2.38742 21.0891 2.35917 21.0711C2.35404 21.0686 2.31809 21.0454 2.31809 21.0429C2.31809 21.0377 2.39769 21.1122 2.35661 21.0711C2.30268 21.0172 2.24618 20.9581 2.18969 20.9042C2.1486 20.8631 2.22307 20.9402 2.21794 20.9427C2.21537 20.9427 2.19226 20.9042 2.18969 20.9016C2.17171 20.8734 2.15374 20.8451 2.13576 20.8169C2.12806 20.8015 2.07413 20.7193 2.08184 20.7116C2.0844 20.709 2.11779 20.8118 2.09981 20.7553C2.09211 20.7347 2.0844 20.7116 2.0767 20.6911C2.06643 20.6577 2.05616 20.6243 2.04845 20.5909C2.04332 20.5704 2.02534 20.4574 2.03561 20.5396C2.04588 20.6243 2.03305 20.4831 2.03305 20.4651C2.03305 20.4523 2.03305 20.4394 2.03305 20.4291C2.03048 20.216 2.03305 20.0054 2.03305 19.7923C2.03305 19.2479 2.03305 18.7035 2.03305 18.1591C2.03305 17.399 2.03305 16.6363 2.03305 15.8762C2.03305 15.0082 2.03305 14.1403 2.03305 13.2697C2.03305 12.3992 2.03305 11.5312 2.03305 10.6607C2.03305 9.91085 2.03305 9.15844 2.03305 8.4086C2.03305 7.88218 2.03305 7.35318 2.03305 6.82675C2.03305 6.68551 2.03305 6.54171 2.03305 6.40047C2.03305 6.32343 2.05616 6.18733 2.04075 6.12057C2.04075 6.12313 2.02277 6.22585 2.03561 6.16936C2.04075 6.15138 2.04075 6.13597 2.04588 6.118C2.05359 6.08462 2.06129 6.05123 2.07156 6.01785C2.07927 5.99474 2.12549 5.88175 2.09211 5.95108C2.05872 6.02042 2.11522 5.91 2.12549 5.88945C2.1409 5.85864 2.15887 5.83039 2.17685 5.80214C2.18712 5.7893 2.19739 5.77389 2.2051 5.76106C2.23334 5.7097 2.17685 5.80471 2.17685 5.79701C2.16658 5.77389 2.31809 5.65063 2.3412 5.63009C2.40796 5.56589 2.26416 5.67888 2.34377 5.62752C2.37201 5.60955 2.40026 5.589 2.42851 5.5736C2.45676 5.55562 2.48757 5.54278 2.51839 5.5248C2.6057 5.47601 2.48757 5.54021 2.49014 5.53508C2.49014 5.52994 2.54663 5.51453 2.55434 5.51196C2.6134 5.49142 2.70071 5.49142 2.7572 5.46317C2.75464 5.46317 3.44375 4.99951 3.50024 4.99951C3.51822 4.99951 2.74437 5.46831 2.76234 5.46574C2.78545 5.46317 2.81113 5.46317 2.83424 5.46317C2.87533 5.46317 2.91385 5.46317 2.95494 5.46317C3.23998 5.46317 3.52759 5.46317 3.81263 5.46317C4.32365 5.46317 4.83724 5.46317 5.34826 5.46317C6.03647 5.46317 6.72467 5.46317 7.41288 5.46317C8.21665 5.46317 9.02298 5.46317 9.82675 5.46317C10.6973 5.46317 11.5678 5.46317 12.4358 5.46317C13.3217 5.46317 14.2077 5.46317 15.0936 5.46317C15.9333 5.46317 16.7705 5.46317 17.6102 5.46317C18.3549 5.46317 19.1022 5.46317 19.8469 5.46317C20.4375 5.46317 21.0281 5.46317 21.6213 5.46317C22.0091 5.46317 22.3943 5.46317 22.782 5.46317C22.8822 5.46317 22.9823 5.46317 23.0825 5.46317C23.1056 5.46317 23.1287 5.46317 23.1544 5.46317C23.1595 5.46317 23.1646 5.46317 23.1698 5.46317C23.1698 5.46317 23.1698 5.46317 23.1723 5.46317C23.2032 5.46317 23.2314 5.46317 23.2622 5.46574C23.3906 5.47345 23.18 5.4452 23.3007 5.47088C23.3701 5.48372 23.4343 5.50683 23.4985 5.52737C23.555 5.54535 23.4522 5.5094 23.4548 5.5094C23.4574 5.50683 23.4959 5.52994 23.501 5.53251C23.5396 5.55305 23.5806 5.57616 23.6192 5.59928C23.6346 5.60955 23.7244 5.67374 23.6628 5.62752C23.6012 5.57873 23.6859 5.65063 23.7013 5.66347C23.727 5.68659 23.7501 5.7097 23.7732 5.73538C23.7835 5.74822 23.7964 5.76106 23.8066 5.77389C23.8708 5.84066 23.7681 5.7097 23.7989 5.76362C23.8323 5.82269 23.8708 5.87661 23.9042 5.93567C23.9068 5.93824 23.9273 5.97933 23.9273 5.9819C23.9247 5.98447 23.8914 5.88175 23.9093 5.93824C23.9222 5.97676 23.935 6.01271 23.9479 6.05123C23.9581 6.08975 23.9658 6.13084 23.9735 6.16936C23.9864 6.22585 23.9684 6.12313 23.9684 6.12057C23.9658 6.13597 23.971 6.15909 23.9735 6.17449C23.9761 6.20531 23.9761 6.23612 23.9761 6.26437C23.9761 6.326 23.9761 6.38763 23.9761 6.44926C23.9761 6.84729 23.9761 7.24789 23.9761 7.64592C23.9761 8.31616 23.9761 8.98382 23.9761 9.65406C23.9761 10.4835 23.9761 11.3155 23.9761 12.145C23.9761 13.0309 23.9761 13.9143 23.9761 14.8002C23.9761 15.6194 23.9761 16.4386 23.9761 17.2603C23.9761 17.9074 23.9761 18.5571 23.9761 19.2042C23.9761 19.5714 23.9761 19.9387 23.9761 20.3033C23.9761 20.3881 23.9735 20.4702 23.971 20.555C23.9684 20.6269 23.9915 20.4548 23.9761 20.5242C23.971 20.5421 23.971 20.5575 23.9658 20.5755C23.9581 20.6089 23.9504 20.6423 23.9402 20.6757C23.9376 20.6859 23.917 20.7707 23.9068 20.7732C23.9016 20.7732 23.9556 20.6782 23.9247 20.7296C23.917 20.745 23.9093 20.7604 23.9016 20.7758C23.8837 20.8118 23.8631 20.8451 23.8426 20.8785C23.8323 20.8939 23.7681 20.9838 23.8143 20.9222C23.8631 20.8606 23.7912 20.9453 23.7784 20.9607C23.7553 20.9864 23.7322 21.0095 23.7065 21.0326C23.6936 21.0454 23.6089 21.1173 23.668 21.0686C23.7322 21.0172 23.6269 21.0942 23.6089 21.1045C23.5806 21.1225 23.5498 21.1379 23.5216 21.1559C23.5062 21.1636 23.4908 21.1687 23.4754 21.179C23.424 21.2098 23.5216 21.1559 23.519 21.161C23.5139 21.1841 23.3264 21.2201 23.3033 21.2252C23.2879 21.2278 23.2648 21.2278 23.2519 21.2355C23.2545 21.2355 23.3572 21.2278 23.3007 21.2278C23.2519 21.2252 23.2109 21.2278 23.1672 21.2278ZM23.1672 21.2278C22.8976 21.2303 22.6408 21.4615 22.6536 21.7414C22.6665 22.0161 22.8796 22.2601 23.1672 22.2549C23.9607 22.2447 24.6412 21.7414 24.9006 20.9967C24.975 20.7861 24.9904 20.5601 24.9904 20.3393C24.9904 19.99 24.9904 19.6433 24.9904 19.2941C24.9904 18.6521 24.9904 18.0101 24.9904 17.3682C24.9904 16.5413 24.9904 15.7144 24.9904 14.8875C24.9904 13.9939 24.9904 13.1002 24.9904 12.2092C24.9904 11.3694 24.9904 10.5272 24.9904 9.68744C24.9904 9.00693 24.9904 8.32643 24.9904 7.64592C24.9904 7.24533 24.9904 6.84473 24.9904 6.44156C24.9904 6.3825 24.9904 6.32343 24.9904 6.2618C24.9827 5.49656 24.5154 4.8443 23.8118 4.55926C23.4985 4.43086 23.1723 4.43857 22.8436 4.43857C22.4687 4.43857 22.0964 4.43857 21.7215 4.43857C21.1334 4.43857 20.5453 4.43857 19.9573 4.43857C19.2126 4.43857 18.4653 4.43857 17.7206 4.43857C16.8757 4.43857 16.0335 4.43857 15.1886 4.43857C14.295 4.43857 13.4013 4.43857 12.5077 4.43857C11.6243 4.43857 10.7409 4.43857 9.85756 4.43857C9.04096 4.43857 8.22435 4.43857 7.40775 4.43857C6.71697 4.43857 6.02363 4.43857 5.33285 4.43857C4.81669 4.43857 4.29797 4.43857 3.78181 4.43857C3.49934 4.43857 3.21687 4.43857 2.93439 4.43857C2.87533 4.43857 2.8137 4.43857 2.75464 4.44113C1.97398 4.48222 1.29091 5.00608 1.07263 5.76106C0.980189 6.08205 1.0033 6.42872 1.0033 6.75742C1.0033 7.27357 1.0033 7.78973 1.0033 8.30332C1.0033 9.05573 1.0033 9.8107 1.0033 10.5631C1.0033 11.4388 1.0033 12.3144 1.0033 13.1901C1.0033 14.0683 1.0033 14.9466 1.0033 15.8248C1.0033 16.5978 1.0033 17.3733 1.0033 18.1462C1.0033 18.6958 1.0033 19.2453 1.0033 19.7949C1.0033 20.0054 1.00073 20.216 1.0033 20.4266C1.011 21.2098 1.50148 21.8775 2.22821 22.1497C2.43878 22.2293 2.66476 22.2524 2.88817 22.2524C3.13983 22.2524 3.38892 22.2524 3.64058 22.2524C4.13362 22.2524 4.6241 22.2524 5.11714 22.2524C5.78994 22.2524 6.46275 22.2524 7.13811 22.2524C7.94445 22.2524 8.74821 22.2524 9.55455 22.2524C10.4328 22.2524 11.311 22.2524 12.1893 22.2524C13.0855 22.2524 13.9791 22.2524 14.8753 22.2524C15.7279 22.2524 16.5804 22.2524 17.4304 22.2524C18.1905 22.2524 18.9532 22.2524 19.7133 22.2524C20.3219 22.2524 20.9331 22.2524 21.5417 22.2524C21.9449 22.2524 22.3455 22.2524 22.7486 22.2524C22.8873 22.2524 23.026 22.2524 23.1646 22.2524C23.4343 22.2524 23.6911 22.0161 23.6782 21.7388C23.6705 21.464 23.4574 21.2278 23.1672 21.2278Z" stroke="currentColor"/>
</svg>
