<svg width="24" height="19" viewBox="0 0 24 19" xmlns="http://www.w3.org/2000/svg">
<path d="M6.85714 1.34694C6.85714 1.52555 6.94745 1.69685 7.10819 1.82315C7.26894 1.94945 7.48696 2.02041 7.71429 2.02041C7.94161 2.02041 8.15963 1.94945 8.32038 1.82315C8.48112 1.69685 8.57143 1.52555 8.57143 1.34694C8.57143 0.989708 8.39082 0.647109 8.06933 0.394509C7.74783 0.141909 7.3118 0 6.85714 0H1.71429C1.25963 0 0.823593 0.141909 0.502103 0.394509C0.180612 0.647109 0 0.989708 0 1.34694V17.5102C0 17.8674 0.180612 18.21 0.502103 18.4626C0.823593 18.7152 1.25963 18.8571 1.71429 18.8571H6.85714C7.3118 18.8571 7.74783 18.7152 8.06933 18.4626C8.39082 18.21 8.57143 17.8674 8.57143 17.5102V6.06122C8.57143 5.88261 8.48112 5.71131 8.32038 5.58501C8.15963 5.45871 7.94161 5.38776 7.71429 5.38776C7.48696 5.38776 7.26894 5.45871 7.10819 5.58501C6.94745 5.71131 6.85714 5.88261 6.85714 6.06122V17.5102H1.71429V1.34694H6.85714Z" fill="currentColor"/>
<path d="M6.85714 1.34694C6.85714 1.52555 6.94745 1.69685 7.10819 1.82315C7.26894 1.94945 7.48696 2.02041 7.71429 2.02041C7.94161 2.02041 8.15963 1.94945 8.32038 1.82315C8.48112 1.69685 8.57143 1.52555 8.57143 1.34694C8.57143 0.989708 8.39082 0.647109 8.06933 0.394509C7.74783 0.141909 7.3118 0 6.85714 0H1.71429C1.25963 0 0.823593 0.141909 0.502103 0.394509C0.180612 0.647109 0 0.989708 0 1.34694V17.5102C0 17.8674 0.180612 18.21 0.502103 18.4626C0.823593 18.7152 1.25963 18.8571 1.71429 18.8571H6.85714C7.3118 18.8571 7.74783 18.7152 8.06933 18.4626C8.39082 18.21 8.57143 17.8674 8.57143 17.5102V6.06122C8.57143 5.88261 8.48112 5.71131 8.32038 5.58501C8.15963 5.45871 7.94161 5.38776 7.71429 5.38776C7.48696 5.38776 7.26894 5.45871 7.10819 5.58501C6.94745 5.71131 6.85714 5.88261 6.85714 6.06122V17.5102H1.71429V1.34694H6.85714Z" fill="currentColor"/>
<path d="M22.2858 0H12.0001C11.5454 0 11.1094 0.141909 10.7879 0.394509C10.4664 0.647109 10.2858 0.989709 10.2858 1.34694V5.38776C10.2858 5.74499 10.4664 6.08759 10.7879 6.34019C11.1094 6.59279 11.5454 6.7347 12.0001 6.7347H22.2858C22.7404 6.7347 23.1765 6.59279 23.4979 6.34019C23.8194 6.08759 24.0001 5.74499 24.0001 5.38776V1.34694C24.0001 0.989709 23.8194 0.647109 23.4979 0.394509C23.1765 0.141909 22.7404 0 22.2858 0ZM12.0001 5.38776V1.34694H22.2858V5.38776H12.0001Z" fill="currentColor"/>
<path d="M22.2858 8.08203H12.0001C11.5454 8.08203 11.1094 8.22394 10.7879 8.47654C10.4664 8.72914 10.2858 9.07174 10.2858 9.42897V17.5106C10.2858 17.8678 10.4664 18.2104 10.7879 18.463C11.1094 18.7156 11.5454 18.8575 12.0001 18.8575H22.2858C22.7404 18.8575 23.1765 18.7156 23.4979 18.463C23.8194 18.2104 24.0001 17.8678 24.0001 17.5106V9.42897C24.0001 9.07174 23.8194 8.72914 23.4979 8.47654C23.1765 8.22394 22.7404 8.08203 22.2858 8.08203ZM22.2858 17.5106H12.0001V9.42897H22.2858V17.5106Z" fill="currentColor"/>
</svg>
