<svg width="20" height="20" viewBox="0 0 20 20" fill="none" xmlns="http://www.w3.org/2000/svg">
<path d="M8.01418 14.8432C7.84385 14.8478 7.67793 14.7886 7.54892 14.6771C7.4199 14.5655 7.33709 14.4098 7.31671 14.2403V8.75995C7.31671 8.57827 7.38875 8.40403 7.51699 8.27555C7.64522 8.14708 7.81915 8.07491 8.0005 8.07491C8.18186 8.07491 8.35578 8.14708 8.48402 8.27555C8.61225 8.40403 8.6843 8.57827 8.6843 8.75995V14.2403C8.66731 14.4062 8.58928 14.5599 8.4654 14.6713C8.34152 14.7828 8.18067 14.844 8.01418 14.8432ZM12.7871 14.2403V8.75995C12.7871 8.57827 12.715 8.40403 12.5868 8.27555C12.4585 8.14708 12.2846 8.07491 12.1033 8.07491C11.9219 8.07491 11.748 8.14708 11.6198 8.27555C11.4915 8.40403 11.4195 8.57827 11.4195 8.75995V14.2403C11.4195 14.3296 11.4372 14.4181 11.4718 14.5004C11.5063 14.5828 11.5569 14.6574 11.6206 14.7199C11.6842 14.7825 11.7597 14.8316 11.8426 14.8645C11.9255 14.8975 12.0141 14.9135 12.1033 14.9117C12.2823 14.9117 12.4542 14.8414 12.582 14.7159C12.7099 14.5904 12.7835 14.4196 12.7871 14.2403ZM19.625 5.78686C19.6214 6.057 19.5118 6.31486 19.3198 6.50462C19.1278 6.69437 18.869 6.80075 18.5993 6.80072H17.9155L15.7547 18.515C15.6936 18.8317 15.523 19.1166 15.2728 19.3196C15.0226 19.5226 14.709 19.6306 14.3871 19.6248H5.74398C5.42211 19.6306 5.10848 19.5226 4.85833 19.3196C4.60817 19.1166 4.43751 18.8317 4.3764 18.515L2.22928 6.73222H1.50446C1.36261 6.74882 1.21887 6.73516 1.08267 6.69214C0.946465 6.64911 0.820897 6.57769 0.714216 6.48257C0.607534 6.38746 0.522155 6.2708 0.46369 6.14026C0.405226 6.00973 0.375 5.86828 0.375 5.7252C0.375 5.58213 0.405226 5.44068 0.46369 5.31014C0.522155 5.17961 0.607534 5.06295 0.714216 4.96783C0.820897 4.87272 0.946465 4.8013 1.08267 4.75827C1.21887 4.71524 1.36261 4.70158 1.50446 4.71819H5.68928C5.76673 3.58723 6.25199 2.52305 7.05463 1.72399C7.85727 0.924924 8.92252 0.445478 10.0519 0.375C11.1837 0.442272 12.2522 0.920302 13.0577 1.71968C13.8632 2.51905 14.3504 3.58502 14.4282 4.71819H18.5309C18.6694 4.70689 18.8087 4.72429 18.9402 4.7693C19.0717 4.8143 19.1925 4.88595 19.2952 4.97978C19.3978 5.07361 19.4801 5.18761 19.5368 5.31468C19.5936 5.44175 19.6236 5.57916 19.625 5.71835V5.78686ZM15.8231 6.82813H4.32169L6.30469 17.5285H13.8401L15.8231 6.82813ZM7.75434 4.71819H12.3905C12.3324 4.11787 12.067 3.55669 11.6401 3.13147C11.2131 2.70624 10.6514 2.44366 10.0519 2.38903C9.45969 2.45264 8.9076 2.71918 8.48896 3.14358C8.07032 3.56798 7.81082 4.1242 7.75434 4.71819Z" fill="#344C5C"/>
</svg>
