<svg width="20" height="20" viewBox="0 0 20 20" fill="none" xmlns="http://www.w3.org/2000/svg">
<path d="M11.375 6.90627H5.875C5.6015 6.90627 5.33919 6.79762 5.1458 6.60422C4.9524 6.41083 4.84375 6.14852 4.84375 5.87502C4.84375 5.60152 4.9524 5.33921 5.1458 5.14582C5.33919 4.95242 5.6015 4.84377 5.875 4.84377H11.375C11.6485 4.84377 11.9108 4.95242 12.1042 5.14582C12.2976 5.33921 12.4062 5.60152 12.4062 5.87502C12.4062 6.14852 12.2976 6.41083 12.1042 6.60422C11.9108 6.79762 11.6485 6.90627 11.375 6.90627ZM19.625 7.40127V18.25C19.625 18.6147 19.4801 18.9644 19.2223 19.2223C18.9644 19.4802 18.6147 19.625 18.25 19.625H1.75C1.38533 19.625 1.03559 19.4802 0.777728 19.2223C0.519866 18.9644 0.375 18.6147 0.375 18.25V1.75002C0.375 1.38535 0.519866 1.03561 0.777728 0.777748C1.03559 0.519886 1.38533 0.37502 1.75 0.37502H13.8362C14.0451 0.373895 14.2515 0.420362 14.4397 0.510896C14.6279 0.601429 14.793 0.733649 14.9225 0.89752L19.3362 6.56252C19.5225 6.80253 19.6241 7.09746 19.625 7.40127ZM13.0938 12.4063H6.90625V17.5625H13.0938V12.4063ZM17.5625 7.64877L13.4375 2.43752H2.4375V17.5625H4.84375V11.375C4.84731 11.1026 4.9571 10.8424 5.14973 10.6498C5.34236 10.4571 5.6026 10.3473 5.875 10.3438H14.125C14.3974 10.3473 14.6576 10.4571 14.8503 10.6498C15.0429 10.8424 15.1527 11.1026 15.1562 11.375V17.5625H17.5625V7.64877Z" fill="#344C5C"/>
</svg>
