<svg width="22" height="22" viewBox="0 0 22 22" fill="none" xmlns="http://www.w3.org/2000/svg">
<path d="M15.4681 20.625H6.53194C5.13045 20.5889 3.8005 19.9965 2.83396 18.9779C1.86742 17.9594 1.34325 16.5978 1.37649 15.192V11.8963C1.37467 11.7587 1.3999 11.622 1.45074 11.4942C1.50157 11.3664 1.57702 11.2498 1.67277 11.1512C1.76852 11.0526 1.88269 10.9739 2.00877 10.9196C2.13485 10.8652 2.27037 10.8363 2.40758 10.8345C2.54479 10.8363 2.68031 10.8652 2.80639 10.9196C2.93247 10.9739 3.04664 11.0526 3.14239 11.1512C3.23814 11.2498 3.31359 11.3664 3.36442 11.4942C3.41526 11.622 3.44049 11.7587 3.43867 11.8963V15.192C3.42584 15.6121 3.49569 16.0307 3.64423 16.4238C3.79278 16.8169 4.01709 17.1767 4.30437 17.4828C4.59164 17.7889 4.93624 18.0351 5.31846 18.2076C5.70068 18.38 6.11303 18.4752 6.53194 18.4876H15.4681C15.887 18.4752 16.2993 18.38 16.6815 18.2076C17.0638 18.0351 17.4084 17.7889 17.6956 17.4828C17.9829 17.1767 18.2072 16.8169 18.3558 16.4238C18.5043 16.0307 18.5742 15.6121 18.5613 15.192V11.8963C18.5613 11.622 18.67 11.359 18.8633 11.165C19.0567 10.9711 19.319 10.8621 19.5924 10.8621C19.8659 10.8621 20.1281 10.9711 20.3215 11.165C20.5149 11.359 20.6235 11.622 20.6235 11.8963V15.192C20.6567 16.5978 20.1326 17.9594 19.166 18.9779C18.1995 19.9965 16.8695 20.5889 15.4681 20.625ZM15.5368 8.73854C15.4516 8.63938 15.3461 8.55982 15.2275 8.50528C15.1089 8.45074 14.9799 8.4225 14.8494 8.4225C14.7189 8.4225 14.5899 8.45074 14.4713 8.50528C14.3527 8.55982 14.2472 8.63938 14.162 8.73854L12.0036 11.0414V2.32647C12.0036 2.07412 11.9037 1.83211 11.7258 1.65368C11.5479 1.47524 11.3066 1.375 11.055 1.375C10.8034 1.375 10.5621 1.47524 10.3842 1.65368C10.2063 1.83211 10.1064 2.07412 10.1064 2.32647V11.0414L7.92048 8.73854C7.83662 8.63728 7.73156 8.55579 7.61275 8.49987C7.49395 8.44394 7.36432 8.41495 7.23308 8.41495C7.10185 8.41495 6.97222 8.44394 6.85341 8.49987C6.73461 8.55579 6.62955 8.63728 6.54569 8.73854C6.37938 8.92949 6.28773 9.17445 6.28773 9.42801C6.28773 9.68157 6.37938 9.92652 6.54569 10.1175L10.3401 14.1302C10.4249 14.2253 10.5287 14.3015 10.6448 14.3537C10.7608 14.406 10.8865 14.4332 11.0137 14.4336C11.1412 14.435 11.2675 14.4086 11.3838 14.3562C11.5002 14.3038 11.6037 14.2267 11.6874 14.1302L15.5368 10.1588C15.7146 9.96534 15.8133 9.71183 15.8133 9.44869C15.8133 9.18556 15.7146 8.93205 15.5368 8.73854Z" fill="#2C3333"/>
</svg>
