<svg width="22" height="22" viewBox="0 0 22 22"  xmlns="http://www.w3.org/2000/svg">
<g clip-path="url(#clip0_5_315)">
<path d="M8.22769 3.82771L8.58125 3.47416L8.22769 3.12061L6.68769 1.58061C6.52545 1.41837 6.52545 1.15745 6.68769 0.995214C6.84993 0.832976 7.11085 0.832976 7.27309 0.995214L14.8264 8.54855C15.1737 8.8958 15.1693 9.44769 14.8295 9.78176L14.8294 9.78175L14.8264 9.78477L9.78475 14.8264C9.61586 14.9953 9.38692 15.0833 9.16664 15.0833C8.94636 15.0833 8.71742 14.9953 8.54853 14.8264L3.50686 9.78477L3.50687 9.78476L3.50382 9.78176C3.16399 9.44769 3.1596 8.8958 3.50686 8.54855L8.22769 3.82771ZM4.42225 8.81311L3.5687 9.66666H4.77581H13.5575H14.7646L13.911 8.81311L9.52019 4.42227L9.16664 4.06872L8.81309 4.42227L4.42225 8.81311ZM17.4166 11.3098C17.5667 11.4936 17.7461 11.7236 17.9247 11.9769C18.145 12.2891 18.3573 12.627 18.5128 12.9508C18.6728 13.284 18.75 13.5563 18.75 13.75C18.75 14.4822 18.1488 15.0833 17.4166 15.0833C16.6844 15.0833 16.0833 14.4822 16.0833 13.75C16.0833 13.5563 16.1605 13.284 16.3205 12.9508C16.476 12.627 16.6883 12.2891 16.9085 11.9769C17.0872 11.7236 17.2666 11.4936 17.4166 11.3098Z"  stroke="#344C5C" stroke-width="1.2"/>
<path d="M1.83333 18.8333H20.1667C20.8989 18.8333 21.5 19.4345 21.5 20.1667C21.5 20.8989 20.8989 21.5 20.1667 21.5H1.83333C1.10114 21.5 0.5 20.8989 0.5 20.1667C0.5 19.4345 1.10114 18.8333 1.83333 18.8333Z" />
<path d="M1.83333 18.8333H20.1667C20.8989 18.8333 21.5 19.4345 21.5 20.1667C21.5 20.8989 20.8989 21.5 20.1667 21.5H1.83333C1.10114 21.5 0.5 20.8989 0.5 20.1667C0.5 19.4345 1.10114 18.8333 1.83333 18.8333Z" />
<path d="M1.83333 18.8333H20.1667C20.8989 18.8333 21.5 19.4345 21.5 20.1667C21.5 20.8989 20.8989 21.5 20.1667 21.5H1.83333C1.10114 21.5 0.5 20.8989 0.5 20.1667C0.5 19.4345 1.10114 18.8333 1.83333 18.8333Z" stroke="#344C5C" stroke-width="1.5"/>
</g>
<defs>
<clipPath id="clip0_5_315">
<rect width="22" height="22" />
</clipPath>
</defs>
</svg>
