<svg width="20" height="20" viewBox="0 0 20 20" fill="none" xmlns="http://www.w3.org/2000/svg">
<path d="M10.6667 0.833252H3.33332C2.60397 0.833252 1.9045 1.12298 1.38878 1.63871C0.873052 2.15443 0.58332 2.85391 0.58332 3.58325V18.2499C0.582679 18.4114 0.62473 18.5703 0.705217 18.7103C0.785703 18.8504 0.901766 18.9667 1.04165 19.0474C1.181 19.1279 1.33908 19.1702 1.49999 19.1702C1.6609 19.1702 1.81897 19.1279 1.95832 19.0474L6.99999 16.1324L12.0417 19.0474C12.1814 19.1266 12.3394 19.1677 12.5 19.1666C12.6606 19.1677 12.8186 19.1266 12.9583 19.0474C13.0982 18.9667 13.2143 18.8504 13.2948 18.7103C13.3752 18.5703 13.4173 18.4114 13.4167 18.2499V3.58325C13.4167 2.85391 13.1269 2.15443 12.6112 1.63871C12.0955 1.12298 11.396 0.833252 10.6667 0.833252ZM11.5833 16.6641L7.45832 14.2808C7.31897 14.2003 7.1609 14.1579 6.99999 14.1579C6.83908 14.1579 6.68101 14.2003 6.54165 14.2808L2.41665 16.6641V3.58325C2.41665 3.34014 2.51323 3.10698 2.68514 2.93507C2.85705 2.76316 3.09021 2.66659 3.33332 2.66659H10.6667C10.9098 2.66659 11.1429 2.76316 11.3148 2.93507C11.4867 3.10698 11.5833 3.34014 11.5833 3.58325V16.6641Z" fill="#344C5C"/>
</svg>