<svg width="66" height="36" viewBox="0 0 66 36" fill="none" xmlns="http://www.w3.org/2000/svg">
<g clip-path="url(#clip0_704_8556)">
<path d="M1.60437 14.6241C1.61113 14.6161 1.61483 14.6061 1.61483 14.5957C1.61483 14.5852 1.61113 14.5752 1.60437 14.5672L1.35572 14.2938L1.60495 14.0215C1.61204 14.0136 1.61597 14.0035 1.61597 13.993C1.61597 13.9825 1.61204 13.9724 1.60495 13.9645C1.60186 13.961 1.59805 13.9582 1.59378 13.9562C1.5895 13.9542 1.58486 13.9532 1.58014 13.9531C1.5755 13.9532 1.57093 13.9542 1.56675 13.9562C1.56256 13.9581 1.55886 13.961 1.55591 13.9645L1.28129 14.2664C1.27432 14.2743 1.27047 14.2844 1.27047 14.2949C1.27047 14.3054 1.27432 14.3155 1.28129 14.3234L1.55533 14.6253C1.55837 14.6289 1.56216 14.6318 1.56645 14.6337C1.57073 14.6357 1.57541 14.6367 1.58014 14.6367C1.58487 14.6367 1.58955 14.6357 1.59384 14.6337C1.59812 14.6318 1.60192 14.6289 1.60495 14.6253L1.60437 14.6241Z" fill="white"/>
</g>
<rect x="0.5" y="0.5" width="65" height="35" fill="white" stroke="#2C3333"/>
<rect x="5.46094" y="5.39453" width="55.0769" height="25.2025" fill="white" stroke="#2C3333"/>
<path d="M36.1793 18.5746C36.1793 20.1402 34.9013 21.4148 33.3182 21.4148C31.7351 21.4148 30.457 20.1402 30.457 18.5746C30.457 17.0089 31.7351 15.7344 33.3182 15.7344C34.9013 15.7344 36.1793 17.0089 36.1793 18.5746Z" fill="#2C3333" stroke="#2C3333"/>
<rect x="33.5" y="5.39453" width="27.0385" height="25.2025" stroke="#2C3333"/>
<path d="M44.9219 17.9986C44.9219 12.675 49.2375 8.35938 54.5611 8.35938H60.5373V27.6379H54.5611C49.2375 27.6379 44.9219 23.3222 44.9219 17.9986Z" fill="white" stroke="#2C3333"/>
<path d="M21.0781 17.9986C21.0781 12.675 16.7625 8.35938 11.4389 8.35938H5.46274V27.6379H11.4389C16.7625 27.6379 21.0781 23.3222 21.0781 17.9986Z" fill="white" stroke="#2C3333"/>
<path d="M18.543 18.1879C18.543 16.6193 17.2714 15.3477 15.7028 15.3477H5.72497V21.0281H15.7028C17.2714 21.0281 18.543 19.7565 18.543 18.1879Z" fill="white" stroke="#2C3333"/>
<path d="M47.5586 18.1879C47.5586 16.6193 48.8302 15.3477 50.3988 15.3477H60.3766V21.0281H50.3988C48.8302 21.0281 47.5586 19.7565 47.5586 18.1879Z" fill="white" stroke="#2C3333"/>
<mask id="path-10-inside-1_704_8556" fill="white">
<path d="M16.0553 21.5281C16.8477 21.5281 17.6076 21.1762 18.1679 20.5497C18.7282 19.9233 19.043 19.0737 19.043 18.1879C19.043 17.302 18.7282 16.4524 18.1679 15.826C17.6076 15.1996 16.8477 14.8477 16.0553 14.8477L16.0553 18.1879L16.0553 21.5281Z"/>
</mask>
<path d="M16.0553 21.5281C16.8477 21.5281 17.6076 21.1762 18.1679 20.5497C18.7282 19.9233 19.043 19.0737 19.043 18.1879C19.043 17.302 18.7282 16.4524 18.1679 15.826C17.6076 15.1996 16.8477 14.8477 16.0553 14.8477L16.0553 18.1879L16.0553 21.5281Z" fill="white" stroke="#2C3333" stroke-width="2" mask="url(#path-10-inside-1_704_8556)"/>
<mask id="path-11-inside-2_704_8556" fill="white">
<path d="M50.0463 21.5281C49.2539 21.5281 48.494 21.1762 47.9337 20.5497C47.3734 19.9233 47.0586 19.0737 47.0586 18.1879C47.0586 17.302 47.3734 16.4524 47.9337 15.826C48.494 15.1996 49.2539 14.8477 50.0463 14.8477L50.0463 18.1879L50.0463 21.5281Z"/>
</mask>
<path d="M50.0463 21.5281C49.2539 21.5281 48.494 21.1762 47.9337 20.5497C47.3734 19.9233 47.0586 19.0737 47.0586 18.1879C47.0586 17.302 47.3734 16.4524 47.9337 15.826C48.494 15.1996 49.2539 14.8477 50.0463 14.8477L50.0463 18.1879L50.0463 21.5281Z" fill="white" stroke="#2C3333" stroke-width="2" mask="url(#path-11-inside-2_704_8556)"/>
<defs>
<clipPath id="clip0_704_8556">
<rect width="0.923077" height="0.911392" fill="white" transform="translate(0.980469 13.8398)"/>
</clipPath>
</defs>
</svg>
