<svg width="20" height="18" viewBox="0 0 20 18" fill="none" xmlns="http://www.w3.org/2000/svg">
<path d="M18.25 0.75H1.75C1.38533 0.75 1.03559 0.894866 0.777728 1.15273C0.519866 1.41059 0.375 1.76033 0.375 2.125V15.875C0.375 16.2397 0.519866 16.5894 0.777728 16.8473C1.03559 17.1051 1.38533 17.25 1.75 17.25H18.25C18.6147 17.25 18.9644 17.1051 19.2223 16.8473C19.4801 16.5894 19.625 16.2397 19.625 15.875V2.125C19.625 1.76033 19.4801 1.41059 19.2223 1.15273C18.9644 0.894866 18.6147 0.75 18.25 0.75ZM17.5625 2.8125V10.2375L14.9225 8.6975C14.7236 8.59157 14.5016 8.53617 14.2762 8.53617C14.0509 8.53617 13.8289 8.59157 13.63 8.6975L11.2925 9.825L7.31875 5.7C7.06172 5.44806 6.71616 5.30695 6.35625 5.30695C5.99634 5.30695 5.65078 5.44806 5.39375 5.7L2.4375 8.45V2.95L17.5625 2.8125ZM2.4375 15.1875V11.0625C2.48016 11.03 2.52627 11.0024 2.575 10.98L6.2875 7.5425L11.7875 13.3312C11.8691 13.457 11.9772 13.5634 12.1041 13.6431C12.231 13.7228 12.3738 13.7739 12.5226 13.7928C12.6713 13.8117 12.8223 13.798 12.9651 13.7525C13.108 13.7071 13.2392 13.631 13.3497 13.5297C13.4601 13.4284 13.5472 13.3042 13.6047 13.1657C13.6623 13.0273 13.689 12.878 13.6829 12.7283C13.6769 12.5785 13.6383 12.4318 13.5698 12.2985C13.5013 12.1652 13.4045 12.0484 13.2863 11.9562L12.75 11.365L14.125 10.6637L17.48 12.63V15.1875H2.4375ZM13.905 5.71375C13.905 6.05369 13.8042 6.38599 13.6153 6.66864C13.4265 6.95128 13.158 7.17158 12.844 7.30167C12.5299 7.43176 12.1843 7.46579 11.8509 7.39947C11.5175 7.33316 11.2113 7.16946 10.9709 6.92909C10.7305 6.68872 10.5668 6.38247 10.5005 6.04906C10.4342 5.71566 10.4682 5.37007 10.5983 5.05601C10.7284 4.74195 10.9487 4.47352 11.2314 4.28466C11.514 4.0958 11.8463 3.995 12.1863 3.995C12.4125 3.99317 12.6368 4.03637 12.8461 4.1221C13.0555 4.20783 13.2457 4.33436 13.4057 4.49433C13.5656 4.65429 13.6922 4.8445 13.7779 5.05385C13.8636 5.26321 13.9068 5.48753 13.905 5.71375Z" fill="#344C5C"/>
</svg>
