<svg width="24" height="24" viewBox="0 0 24 24" fill="none" xmlns="http://www.w3.org/2000/svg">
<path d="M7.6199 8.99967H16.3799C16.5339 8.9891 16.6877 9.02362 16.8225 9.09902C16.9572 9.17441 17.0671 9.28741 17.1387 9.42422C17.2103 9.56103 17.2405 9.71573 17.2256 9.86941C17.2107 10.0231 17.1514 10.1691 17.0549 10.2897L12.6749 14.6997C12.5904 14.7954 12.4866 14.8721 12.3702 14.9247C12.2538 14.9772 12.1276 15.0044 11.9999 15.0044C11.8722 15.0044 11.746 14.9772 11.6296 14.9247C11.5132 14.8721 11.4094 14.7954 11.3249 14.6997L6.9449 10.2897C6.8484 10.1691 6.78909 10.0231 6.77421 9.86941C6.75933 9.71573 6.78953 9.56103 6.86111 9.42422C6.9327 9.28741 7.04257 9.17441 7.17732 9.09902C7.31207 9.02362 7.46586 8.9891 7.6199 8.99967Z" fill="#344C5C"/>
</svg>
