<svg width="18" height="18" viewBox="0 0 18 18" fill="none" xmlns="http://www.w3.org/2000/svg">
<path d="M17.2825 7.35591H8.95553V10.8069H13.7475C13.3015 12.9999 11.4345 14.2599 8.95553 14.2599C8.26186 14.2611 7.57479 14.1253 6.93371 13.8604C6.29263 13.5955 5.71016 13.2066 5.21971 12.716C4.72926 12.2255 4.34048 11.6429 4.07566 11.0018C3.81085 10.3607 3.67521 9.67358 3.67653 8.97991C3.67534 8.28633 3.81108 7.59934 4.07595 6.95833C4.34083 6.31731 4.72963 5.73489 5.22006 5.24445C5.7105 4.75402 6.29292 4.36521 6.93394 4.10034C7.57495 3.83546 8.26194 3.69973 8.95553 3.70091C10.2145 3.70091 11.3525 4.14791 12.2455 4.87891L14.8455 2.27991C13.2615 0.898913 11.2305 0.0469131 8.95553 0.0469131C7.78133 0.0434809 6.61805 0.272223 5.53258 0.719983C4.4471 1.16774 3.46086 1.82569 2.63058 2.65597C1.8003 3.48625 1.14235 4.47249 0.694595 5.55796C0.246835 6.64343 0.0180933 7.80672 0.0215254 8.98091C0.0179605 10.1551 0.246612 11.3185 0.694325 12.404C1.14204 13.4896 1.79997 14.4758 2.63028 15.3062C3.46059 16.1365 4.44689 16.7944 5.53242 17.2421C6.61795 17.6898 7.7813 17.9185 8.95553 17.9149C13.4225 17.9149 17.4845 14.6659 17.4845 8.98091C17.4845 8.45291 17.4035 7.88391 17.2825 7.35591Z" fill="#2C3333"/>
</svg>
