<svg width="32" height="32" viewBox="0 0 32 32" fill="none" xmlns="http://www.w3.org/2000/svg">
<path d="M16 32C13.7825 32 11.6985 31.5789 9.74821 30.7368C7.79677 29.8947 6.10526 28.7579 4.67368 27.3263C3.24211 25.8947 2.10526 24.2032 1.26316 22.2518C0.421053 20.3015 0 18.2175 0 16H2.52632C2.52632 19.3684 3.62105 22.3091 5.81053 24.8219C8 27.3336 10.7649 28.8281 14.1053 29.3053L11.5789 26.7789L13.3474 25.0105L19.7895 31.4526C19.1719 31.6491 18.5476 31.7895 17.9166 31.8737C17.2845 31.9579 16.6456 32 16 32ZM17.0947 20.8V11.2H21.9789C22.4561 11.2 22.8564 11.3617 23.1798 11.6851C23.502 12.0073 23.6632 12.407 23.6632 12.8842V19.1158C23.6632 19.593 23.502 19.9927 23.1798 20.3149C22.8564 20.6383 22.4561 20.8 21.9789 20.8H17.0947ZM8.33684 20.8V18.7789H12.8842V16.7579H10.0211V15.2421H12.8842V13.2211H8.33684V11.2H13.4737C13.8667 11.2 14.2035 11.3404 14.4842 11.6211C14.7649 11.9018 14.9053 12.2386 14.9053 12.6316V19.3684C14.9053 19.7614 14.7649 20.0982 14.4842 20.3789C14.2035 20.6597 13.8667 20.8 13.4737 20.8H8.33684ZM19.1158 18.7789H21.4316C21.5158 18.7789 21.5719 18.7649 21.6 18.7368C21.6281 18.7088 21.6421 18.6667 21.6421 18.6105V13.3895C21.6421 13.3333 21.6281 13.2912 21.6 13.2632C21.5719 13.2351 21.5158 13.2211 21.4316 13.2211H19.1158V18.7789ZM29.4737 16C29.4737 12.6316 28.3789 9.69095 26.1895 7.17811C24 4.66639 21.2351 3.17193 17.8947 2.69474L20.4211 5.22105L18.6526 6.98947L12.2105 0.547369C12.8281 0.350877 13.4529 0.210526 14.0851 0.126316C14.7161 0.0421053 15.3544 0 16 0C18.2175 0 20.302 0.421053 22.2535 1.26316C24.2038 2.10526 25.8947 3.24211 27.3263 4.67368C28.7579 6.10526 29.8947 7.79621 30.7368 9.74653C31.5789 11.698 32 13.7825 32 16H29.4737Z" fill="white"/>
</svg>
