<svg width="24" height="24" viewBox="0 0 24 24" fill="none" xmlns="http://www.w3.org/2000/svg">
<path d="M16.3801 15.0025L7.6201 15.0025C7.46606 15.0131 7.31227 14.9786 7.17752 14.9032C7.04277 14.8278 6.9329 14.7148 6.86131 14.578C6.78972 14.4412 6.75953 14.2865 6.77441 14.1328C6.78929 13.9791 6.8486 13.8331 6.9451 13.7125L11.3251 9.30253C11.4096 9.20676 11.5134 9.13007 11.6298 9.07753C11.7462 9.025 11.8724 8.99782 12.0001 8.99782C12.1278 8.99782 12.254 9.025 12.3704 9.07753C12.4868 9.13007 12.5906 9.20676 12.6751 9.30253L17.0551 13.7125C17.1516 13.8331 17.2109 13.9791 17.2258 14.1328C17.2407 14.2865 17.2105 14.4412 17.1389 14.578C17.0673 14.7148 16.9574 14.8278 16.8227 14.9032C16.6879 14.9786 16.5341 15.0131 16.3801 15.0025V15.0025Z" fill="white"/>
</svg>
