<svg width="16" height="28" viewBox="0 0 16 28" xmlns="http://www.w3.org/2000/svg">
<path d="M10.6667 12.6H5.33333C4.62609 12.6 3.94781 12.305 3.44772 11.7799C2.94762 11.2548 2.66667 10.5426 2.66667 9.8C2.66667 9.05739 2.94762 8.3452 3.44772 7.8201C3.94781 7.295 4.62609 7 5.33333 7H12C12.3536 7 12.6928 7.1475 12.9428 7.41005C13.1929 7.6726 13.3333 8.0287 13.3333 8.4C13.3333 8.7713 13.4738 9.1274 13.7239 9.38995C13.9739 9.6525 14.313 9.8 14.6667 9.8C15.0203 9.8 15.3594 9.6525 15.6095 9.38995C15.8595 9.1274 16 8.7713 16 8.4C16 7.28609 15.5786 6.2178 14.8284 5.43015C14.0783 4.6425 13.0609 4.2 12 4.2H9.33333V1.4C9.33333 1.0287 9.19286 0.672601 8.94281 0.41005C8.69276 0.1475 8.35362 0 8 0C7.64638 0 7.30724 0.1475 7.05719 0.41005C6.80714 0.672601 6.66667 1.0287 6.66667 1.4V4.2H5.33333C3.91885 4.2 2.56229 4.79 1.5621 5.8402C0.561903 6.89041 0 8.31479 0 9.8C0 11.2852 0.561903 12.7096 1.5621 13.7598C2.56229 14.81 3.91885 15.4 5.33333 15.4H10.6667C11.3739 15.4 12.0522 15.695 12.5523 16.2201C13.0524 16.7452 13.3333 17.4574 13.3333 18.2C13.3333 18.9426 13.0524 19.6548 12.5523 20.1799C12.0522 20.705 11.3739 21 10.6667 21H4C3.64638 21 3.30724 20.8525 3.05719 20.59C2.80714 20.3274 2.66667 19.9713 2.66667 19.6C2.66667 19.2287 2.52619 18.8726 2.27614 18.6101C2.02609 18.3475 1.68696 18.2 1.33333 18.2C0.979711 18.2 0.640573 18.3475 0.390525 18.6101C0.140476 18.8726 0 19.2287 0 19.6C0 20.7139 0.421427 21.7822 1.17157 22.5698C1.92172 23.3575 2.93913 23.8 4 23.8H6.66667V26.6C6.66667 26.9713 6.80714 27.3274 7.05719 27.59C7.30724 27.8525 7.64638 28 8 28C8.35362 28 8.69276 27.8525 8.94281 27.59C9.19286 27.3274 9.33333 26.9713 9.33333 26.6V23.8H10.6667C12.0812 23.8 13.4377 23.21 14.4379 22.1598C15.4381 21.1096 16 19.6852 16 18.2C16 16.7148 15.4381 15.2904 14.4379 14.2402C13.4377 13.19 12.0812 12.6 10.6667 12.6Z" />
</svg>
