<svg width="24" height="24" fill="currentColor" viewBox="0 0 28 24" xmlns="http://www.w3.org/2000/svg">
<path d="M19.355 6.21954C18.675 2.82465 15.64 0.263672 12 0.263672C9.11 0.263672 6.605 1.88217 5.35 4.24577C2.345 4.5665 0 7.07814 0 10.1326C0 13.4041 2.685 16.0539 6 16.0539H19C21.76 16.0539 24 13.8433 24 11.1194C24 8.51406 21.945 6.40212 19.355 6.21954ZM19 14.0801H6C3.79 14.0801 2 12.3136 2 10.1326C2 7.95153 3.79 6.185 6 6.185H6.71C7.365 3.91022 9.48 2.23745 12 2.23745C15.04 2.23745 17.5 4.66519 17.5 7.66533V8.15878H19C20.655 8.15878 22 9.48614 22 11.1194C22 12.7527 20.655 14.0801 19 14.0801Z" fill="#C8C5C5"/>
</svg>