<svg width="24" height="24" fill="currentColor" viewBox="0 0 28 24" xmlns="http://www.w3.org/2000/svg">
<path d="M19.355 6.91772C18.675 3.51785 15.64 0.953125 12 0.953125C9.11 0.953125 6.605 2.57399 5.35 4.94105C2.345 5.26226 0 7.77757 0 10.8365C0 14.1128 2.685 16.7665 6 16.7665H19C21.76 16.7665 24 14.5526 24 11.8248C24 9.21559 21.945 7.10056 19.355 6.91772ZM19 14.7898H6C3.79 14.7898 2 13.0207 2 10.8365C2 8.65224 3.79 6.88312 6 6.88312H6.71C7.365 4.60502 9.48 2.92979 12 2.92979C15.04 2.92979 17.5 5.36109 17.5 8.36562V8.85979H19C20.655 8.85979 22 10.1891 22 11.8248C22 13.4605 20.655 14.7898 19 14.7898Z" fill="#C8C5C5"/>
</svg>
