<svg width="49" height="48" viewBox="0 0 49 48" fill="none" xmlns="http://www.w3.org/2000/svg">
<rect x="0.199951" width="48" height="48" rx="24" fill="#E2E8F0"/>
<g clip-path="url(#clip0_1649_7464)">
<path d="M24.2 27.5C29.8812 27.5 34.4857 22.9115 34.4857 17.25C34.4857 11.5885 29.8812 7 24.2 7C18.5187 7 13.9142 11.5885 13.9142 17.25C13.9142 22.9115 18.5187 27.5 24.2 27.5ZM31.4 30.0625H30.058C28.2741 30.8793 26.2892 31.3438 24.2 31.3438C22.1107 31.3438 20.1339 30.8793 18.3419 30.0625H17C11.0375 30.0625 6.19995 34.8832 6.19995 40.825V44.1562C6.19995 46.2783 7.92763 48 10.0571 48H38.3428C40.4723 48 42.2 46.2783 42.2 44.1562V40.825C42.2 34.8832 37.3625 30.0625 31.4 30.0625Z" fill="white"/>
</g>
<defs>
<clipPath id="clip0_1649_7464">
<rect width="36" height="41" fill="white" transform="translate(6.19995 7)"/>
</clipPath>
</defs>
</svg>
