<svg width="21" height="26" viewBox="0 0 21 26" fill="none" xmlns="http://www.w3.org/2000/svg">
<path d="M2.79995 26C2.08495 26 1.47308 25.7456 0.964351 25.2369C0.454751 24.7273 0.199951 24.115 0.199951 23.4V7.8C0.199951 7.085 0.454751 6.47313 0.964351 5.9644C1.47308 5.4548 2.08495 5.2 2.79995 5.2H5.39995C5.39995 3.77 5.90912 2.54583 6.92745 1.5275C7.94579 0.509167 9.16995 0 10.6 0C12.03 0 13.2541 0.509167 14.2725 1.5275C15.2908 2.54583 15.8 3.77 15.8 5.2H18.4C19.115 5.2 19.7273 5.4548 20.2369 5.9644C20.7456 6.47313 21 7.085 21 7.8V23.4C21 24.115 20.7456 24.7273 20.2369 25.2369C19.7273 25.7456 19.115 26 18.4 26H2.79995ZM2.79995 23.4H18.4V7.8H15.8V10.4C15.8 10.7683 15.6756 11.0769 15.4269 11.3256C15.1773 11.5752 14.8683 11.7 14.5 11.7C14.1316 11.7 13.8231 11.5752 13.5744 11.3256C13.3248 11.0769 13.2 10.7683 13.2 10.4V7.8H7.99995V10.4C7.99995 10.7683 7.87559 11.0769 7.62685 11.3256C7.37725 11.5752 7.06828 11.7 6.69995 11.7C6.33162 11.7 6.02308 11.5752 5.77435 11.3256C5.52475 11.0769 5.39995 10.7683 5.39995 10.4V7.8H2.79995V23.4ZM7.99995 5.2H13.2C13.2 4.485 12.9456 3.87313 12.4369 3.3644C11.9273 2.8548 11.315 2.6 10.6 2.6C9.88495 2.6 9.27309 2.8548 8.76435 3.3644C8.25475 3.87313 7.99995 4.485 7.99995 5.2Z" fill="white"/>
</svg>
