<svg width="20" height="36" viewBox="0 0 20 36" fill="none" xmlns="http://www.w3.org/2000/svg">
<g clip-path="url(#clip0_802_1861)">
<path d="M7.92224 34.4984C7.91791 34.4948 7.91245 34.4928 7.90681 34.4928C7.90117 34.4928 7.89571 34.4948 7.89138 34.4984L7.74326 34.6316L7.59575 34.4981C7.5915 34.4943 7.58601 34.4922 7.58032 34.4922C7.57462 34.4922 7.56913 34.4943 7.56489 34.4981V34.4981C7.56298 34.4997 7.56145 34.5018 7.56038 34.5041C7.55932 34.5064 7.55875 34.5089 7.55872 34.5114C7.55874 34.5139 7.5593 34.5163 7.56036 34.5186C7.56143 34.5208 7.56297 34.5228 7.56489 34.5244L7.72844 34.6715C7.73272 34.6752 7.7382 34.6773 7.74387 34.6773C7.74955 34.6773 7.75503 34.6752 7.7593 34.6715L7.92286 34.5247C7.9248 34.523 7.92636 34.521 7.92744 34.5187C7.92851 34.5164 7.92907 34.5139 7.92907 34.5114C7.92907 34.5088 7.92851 34.5063 7.92744 34.504C7.92636 34.5017 7.9248 34.4997 7.92286 34.4981L7.92224 34.4984Z" fill="white"/>
</g>
<rect y="35.3594" width="35.3594" height="19.5032" transform="rotate(-90 0 35.3594)" fill="#C96E55"/>
<rect x="3.1532" y="32.1992" width="29.0211" height="13.1649" transform="rotate(-90 3.1532 32.1992)" fill="#643132" stroke="white"/>
<path d="M9.75193 16.5387C10.3442 16.5387 10.8258 17.0199 10.8258 17.6151C10.8258 18.2103 10.3442 18.6914 9.75193 18.6914C9.15962 18.6914 8.6781 18.2103 8.6781 17.6151C8.6781 17.0199 9.15962 16.5387 9.75193 16.5387Z" fill="#411920" stroke="white"/>
<rect x="3.1532" y="17.1797" width="14.0216" height="13.1953" transform="rotate(-90 3.1532 17.1797)" stroke="white"/>
<path d="M4.75928 6.06562L4.75928 3.15693L14.7452 3.15693L14.7452 6.06562C14.7452 8.82316 12.5098 11.0586 9.75225 11.0586C6.99471 11.0586 4.75928 8.82316 4.75928 6.06562Z" fill="#375239" stroke="white"/>
<path d="M4.75928 29.2938L4.75928 32.2024L14.7452 32.2024L14.7452 29.2938C14.7452 26.5362 12.5098 24.3008 9.75225 24.3008C6.99471 24.3008 4.75928 26.5362 4.75928 29.2938Z" fill="#375239" stroke="white"/>
<path d="M8.70703 8.4414L8.70703 3.15905L10.793 3.15905L10.793 8.4414C10.793 9.01742 10.326 9.48437 9.75 9.48437C9.17399 9.48437 8.70703 9.01742 8.70703 8.4414Z" fill="#1A1F51" stroke="white"/>
<path d="M8.61389 26.918L8.61389 32.2003L10.6998 32.2003L10.6998 26.918C10.6998 26.342 10.2329 25.875 9.65686 25.875C9.08085 25.875 8.61389 26.342 8.61389 26.918Z" fill="#1A1F51" stroke="white"/>
<mask id="path-10-inside-1_802_1861" fill="white">
<path d="M11.1998 26.9204C11.1998 26.5106 11.0373 26.1175 10.7479 25.8276C10.4585 25.5378 10.0661 25.375 9.65686 25.375C9.24764 25.375 8.85518 25.5378 8.56582 25.8276C8.27645 26.1175 8.11389 26.5106 8.11389 26.9204L9.65686 26.9204L11.1998 26.9204Z"/>
</mask>
<path d="M11.1998 26.9204C11.1998 26.5106 11.0373 26.1175 10.7479 25.8276C10.4585 25.5378 10.0661 25.375 9.65686 25.375C9.24764 25.375 8.85518 25.5378 8.56582 25.8276C8.27645 26.1175 8.11389 26.5106 8.11389 26.9204L9.65686 26.9204L11.1998 26.9204Z" fill="#B59F7A" stroke="white" stroke-width="2" mask="url(#path-10-inside-1_802_1861)"/>
<mask id="path-11-inside-2_802_1861" fill="white">
<path d="M11.293 8.43895C11.293 8.84882 11.1304 9.24191 10.841 9.53173C10.5517 9.82155 10.1592 9.98437 9.75 9.98437C9.34078 9.98437 8.94832 9.82155 8.65896 9.53173C8.36959 9.24191 8.20703 8.84882 8.20703 8.43895L9.75 8.43895L11.293 8.43895Z"/>
</mask>
<path d="M11.293 8.43895C11.293 8.84882 11.1304 9.24191 10.841 9.53173C10.5517 9.82155 10.1592 9.98437 9.75 9.98437C9.34078 9.98437 8.94832 9.82155 8.65896 9.53173C8.36959 9.24191 8.20703 8.84882 8.20703 8.43895L9.75 8.43895L11.293 8.43895Z" fill="#B59F7A" stroke="white" stroke-width="2" mask="url(#path-11-inside-2_802_1861)"/>
<defs>
<clipPath id="clip0_802_1861">
<rect width="0.494537" height="0.493751" fill="white" transform="translate(7.49719 34.832) rotate(-90)"/>
</clipPath>
</defs>
</svg>
