<svg width="18" height="10" viewBox="0 0 18 10" fill="none" xmlns="http://www.w3.org/2000/svg">
  <path d="M1.06257 1.13182C1.25545 0.97073 1.49877 0.882486 1.75007 0.882486C2.00137 0.882486 2.24469 0.97073 2.43757 1.13182L9.03757 7.05807L15.6101 1.11807C15.7991 0.948961 16.0439 0.855469 16.2976 0.855469C16.5512 0.855469 16.796 0.948961 16.9851 1.11807C17.07 1.19168 17.1384 1.28241 17.1858 1.38431C17.2332 1.4862 17.2585 1.59696 17.2601 1.70932C17.2592 1.81983 17.2341 1.9288 17.1866 2.02858C17.1391 2.12835 17.0703 2.2165 16.9851 2.28682L9.69757 8.83182C9.50716 8.99816 9.2629 9.08982 9.01007 9.08982C8.75724 9.08982 8.51298 8.99816 8.32257 8.83182L1.03507 2.30057C0.948454 2.22831 0.878769 2.13789 0.830952 2.03572C0.783134 1.93355 0.758348 1.82213 0.758348 1.70932C0.758348 1.59652 0.783134 1.48509 0.830952 1.38292C0.878769 1.28075 0.948454 1.19034 1.03507 1.11807L1.06257 1.13182Z" fill="#344C5C"/>
</svg>
