<svg width="18" height="10" viewBox="0 0 18 10" fill="none" xmlns="http://www.w3.org/2000/svg">
<path d="M1.06251 8.87013C1.25539 9.03122 1.49871 9.11947 1.75001 9.11947C2.00131 9.11947 2.24463 9.03122 2.43751 8.87013L9.03751 2.94388L15.61 8.88388C15.7991 9.05299 16.0438 9.14648 16.2975 9.14648C16.5512 9.14648 16.7959 9.05299 16.985 8.88388V8.88388C17.0699 8.81027 17.1383 8.71954 17.1857 8.61765C17.2331 8.51575 17.2584 8.405 17.26 8.29263C17.2592 8.18213 17.2341 8.07315 17.1866 7.97338C17.1391 7.8736 17.0703 7.78545 16.985 7.71513L9.69751 1.17013C9.5071 1.0038 9.26284 0.912132 9.01001 0.912132C8.75718 0.912132 8.51292 1.0038 8.32251 1.17013L1.03501 7.70138C0.948393 7.77365 0.878709 7.86406 0.830891 7.96623C0.783073 8.0684 0.758287 8.17983 0.758287 8.29263C0.758287 8.40544 0.783073 8.51687 0.830891 8.61903C0.878709 8.7212 0.948393 8.81162 1.03501 8.88388L1.06251 8.87013Z" fill="#344C5C"/>
</svg>
